<?xml version="1.0" encoding="iso-8859-1"?>
<!-- Generator: Adobe Illustrator 19.0.0, SVG Export Plug-In . SVG Version: 6.00 Build 0)  -->
<svg version="1.1" id="Layer_1" xmlns="http://www.w3.org/2000/svg" xmlns:xlink="http://www.w3.org/1999/xlink" x="0px" y="0px"
	 viewBox="0 0 512 512" style="enable-background:new 0 0 512 512;" xml:space="preserve">
<g>
	<path style="fill:#C03000;" d="M183.864,258.014c-0.033,0-0.067,0-0.067,0l-4.587,4.52c-6.814,6.814-13.693,13.594-20.573,20.341
		c-7.711,7.577-15.554,15.089-23.364,22.633l-14.458,13.893c-0.93,2.327-1.695,4.453-2.392,6.581
		c-1.396,4.121-2.726,8.242-3.955,12.396c-2.227,7.544-4.022,15.488-5.584,24.295c-0.897,4.985-1.562,9.971-2.227,14.956
		l-0.531,3.922l-0.531,6.88l-0.133,2.028l-0.199,2.227l-0.1,1.163l-0.199,7.943c-0.067,1.529-0.033,3.057,0,4.587l0.033,1.562
		c0,1.595,0.033,3.157,0.133,4.719c0.133,2.426,0.299,4.886,0.466,7.312c0.266,3.988,0.797,7.91,1.33,11.898
		c0.332,2.327,0.765,5.018,1.263,7.744c0.399,2.26,0.897,4.453,1.396,6.714l1.196,5.051l0.864,3.623
		c0.665,2.925,1.196,5.118,1.894,7.245l-0.033,0.033c0,0,0,0.033,0,0.067l0.033-0.067c0.033,0.1,0.067,0.167,0.1,0.266
		c0.067,0.266,0.299,0.698,0.565,1.064c0.332,0.631,0.366,1.43,0.033,2.095c0.964,0.199,1.894,0.232,2.791,0.232
		c1.595,0,3.191-0.1,4.786-0.232c7.179-1.129,14.491-3.191,21.769-6.082c7.146-3.191,14.259-7.544,22.467-13.759l4.985-3.822
		l3.057-2.327l-0.332-1.229l-0.399-1.363c-0.299-1.031-0.598-2.093-0.897-3.157l-0.266-1.064c-0.598-2.293-1.229-4.587-1.662-6.946
		l-0.266-1.097c-0.332-1.428-0.631-2.858-0.864-4.288l-0.864-4.853c-0.399-2.227-0.732-4.453-1.064-6.68l-0.366-2.426
		c-0.332-2.227-0.631-4.453-0.93-6.68l-0.366-2.925c-0.399-2.958-0.698-5.917-0.997-8.907c-0.266-2.227-0.399-4.453-0.565-6.68
		l-0.1-1.662l-0.166-2.327l-0.166-2.327c-0.067-0.765-0.067-1.562-0.067-2.327l-0.067-9.306c-0.033-0.366-0.033-0.732,0-1.064
		l0.033-0.93c0.067-1.462,0.133-2.891,0.166-4.353c0.067-1.961,0.133-3.855,0.266-5.716l0.299-4.487l0.332-4.487
		c0.232-3.423,0.665-6.814,1.129-10.236l0.466-3.59l0.133-1.263c0.133-1.064,0.266-2.127,0.498-3.191l0.199-1.097
		c0.433-2.293,0.864-4.62,1.33-6.912l0.798-4.221l0.797-4.188c0.133-0.83,0.366-1.662,0.598-2.459l0.266-1.064l1.296-4.953
		l1.263-4.919l0.366-1.396c0.299-1.263,0.598-2.559,0.964-3.789l5.252-17.981l3.789-13.061c0-0.033,0-0.067-0.033-0.1h-0.032
		V258.014z M138.797,430.972c-0.997-3.191-1.961-6.647-2.327-10.303c-0.199-1.928-0.399-3.889-0.499-5.85l-0.399-6.216l-0.399-6.182
		c-0.033-0.499,0.133-0.964,0.498-1.363c0.399-0.433,0.997-0.665,1.529-0.665c1.129,0,1.961,0.83,2.028,2.028l0.598,9.373
		l0.133,1.562c0.133,2.36,0.299,4.686,0.531,7.013c0.266,1.994,0.665,4.088,1.229,6.015c0.332,1.196,0.665,2.36,1.031,3.523
		c0.133,0.466,0.1,0.997-0.167,1.462c-0.266,0.498-0.732,0.897-1.263,1.064l-0.498,0.067
		C139.893,432.5,139.096,431.869,138.797,430.972L138.797,430.972z M127.63,432.368c-0.299-0.299-0.499-0.631-0.598-1.031
		l-1.629-11.633l-1.662-11.633c-0.133-0.732-0.1-1.263,0.232-1.861c0.266-0.498,0.797-0.897,1.428-1.129
		c0.232,0,0.433-0.033,0.598-0.033c0.598,0,0.93,0.134,1.263,0.299c0.466,0.299,0.997,0.864,1.064,1.43
		c1.129,7.976,2.26,15.953,3.291,23.963c0.067,0.565-0.266,1.263-0.665,1.629c-0.433,0.465-1.064,0.698-1.662,0.698
		C128.693,433.065,128.062,432.833,127.63,432.368L127.63,432.368z"/>
	<path style="fill:#C03000;" d="M251.166,221.987c-0.897,3.191-1.761,6.414-2.559,9.672c-0.565,2.16-1.129,4.32-1.629,6.515
		l-0.565,2.791l-0.466,2.16c-0.598,2.858-1.196,5.716-1.762,8.608c-0.332,1.462-0.531,2.293-0.665,3.157
		c-0.565,3.789-1.131,7.577-1.695,11.399c-0.332,3.755-0.665,7.545-1.031,11.334c-0.067,1.031-0.1,2.028-0.133,3.025l-0.067,1.529
		c-0.1,2.061-0.199,4.154-0.266,6.248c-0.1,2.626-0.133,5.218-0.133,7.844l-0.033,2.626c-0.033,3.456,0.033,6.912,0.1,10.37
		c0.067,5.982,0.366,12.298,0.93,19.942c0.299,3.722,0.598,7.378,0.964,11.067c0.299,3.257,0.732,6.481,1.129,9.739
		c0.765,5.085,1.695,10.636,2.858,16.152c1.163,5.384,2.227,10.27,4.021,15.022l5.883-4.554l6.314-5.484
		c4.554-3.956,9.206-7.811,13.826-11.666c4.42-3.69,8.84-7.412,13.195-11.134c-0.266-0.631-0.498-1.263-0.698-2.028l-0.232-1.031
		c-0.299-1.163-0.565-2.327-0.765-3.49c-0.565-3.257-0.964-6.515-1.263-9.804c-0.166-1.828-0.299-3.623-0.433-5.451
		c-0.1-1.263-0.1-2.526-0.134-3.789v-1.263c-0.067-1.196,0-2.426,0.033-3.623l0.1-2.061c0.033-1.097,0.067-2.193,0.134-3.324
		c0.332-5.75,0.698-11.267,1.097-16.818l0.399-5.783c0.134-2.227,0.366-4.42,0.565-6.613l0.332-3.423
		c0.433-4.919,0.897-9.837,1.396-14.757c0.033-0.399,0.1-0.732,0.199-0.997c-4.652-4.819-9.007-9.971-13.36-15.854
		c-2.592-3.456-4.453-7.445-6.149-11.234c-2.028-4.652-3.49-8.641-4.62-12.563c-1.196-4.221-2.16-8.508-2.958-12.762
		c-1.031-5.051-2.127-11.7-1.462-18.413c0-0.033,0-0.266-0.067-0.266c-0.033-0.033-0.033-0.167-0.067-0.167
		C257.813,201.879,254.058,211.685,251.166,221.987L251.166,221.987z"/>
	<path style="fill:#C03000;" d="M53.216,438.815c-1.031,0.033-2.028,0.1-3.058,0.199c-5.152,0.93-10.303,2.426-15.754,4.62
		c-4.52,1.961-9.04,3.989-13.494,6.115c1.031,0.399,2.061,0.598,3.157,0.798l0.964,0.067c0.665,0.067,1.33,0.134,1.994,0.232
		c1.263,0.134,4.353,0.765,5.716,3.025c0.565,0.964,1.131,1.994,1.263,3.09c0.199,1.33,0.332,2.559,0.332,3.889l-0.1,0.93
		c-0.1,0.598-0.167,1.196-0.299,1.794l-0.299,1.562c-0.133,0.83-0.332,1.695-0.598,2.526l-1.761,5.783l-0.399,1.363l-0.499,1.662
		c-0.498,1.562-0.964,3.124-1.33,4.719c0.631-0.033,1.163-0.199,1.695-0.433c1.529-0.698,3.025-1.428,4.52-2.16
		c1.129-0.531,1.928-0.93,2.925-1.064c0.332-0.1,0.631-0.134,0.93-0.134c0.299,0,0.598,0.033,0.897,0.1
		c0.565,0.033,1.096,0.167,1.595,0.466c0.498,0.366,0.964,0.765,1.396,1.229c0.665,0.598,1.064,1.529,1.396,2.36
		c0.465,0.964,0.698,1.595,0.897,2.293c0.366,1.595,0.665,3.191,0.897,4.853l0.266,1.828c0.232,1.562,0.466,3.157,0.83,4.686
		c0.366,1.462,0.797,2.791,1.33,4.154c0.665,1.495,1.428,2.858,2.293,4.221c0.067,0,1.163,0,1.229,0c0.033,0,0.033,0,0.033,0
		c1.396-1.129,2.626-2.392,3.789-3.789c2.526-3.357,4.652-6.946,6.348-10.702c2.858-6.814,4.953-14.125,6.946-21.171l0.997-3.523
		c0.665-2.293,2.693-3.922,5.085-4.054c-1.794-2.459-3.49-4.886-5.118-7.345c-1.196-1.928-2.392-3.855-3.523-5.783l-0.83-1.33
		c-1.263-2.127-2.492-4.255-3.722-6.381c-0.598,0.067-1.097,0.134-1.662,0.134s-1.163-0.067-1.761-0.199
		c-0.433-0.1-0.93-0.199-1.396-0.266c-1.396-0.199-2.592-0.366-3.789-0.366h-0.331V438.815z"/>
</g>
<g>
	<path style="fill:#5FAD29;" d="M457.326,211.319c-0.134,2.394-0.166,4.654-0.332,6.912c-0.266,2.758-0.466,4.886-1.196,6.814
		c-0.698,1.894-1.695,4.32-3.423,6.182c-0.83,0.93-1.629,1.794-2.592,2.559l-1.595,1.263c-2.028,1.529-3.656,2.725-5.384,3.689
		c-1.163,0.665-1.828,0.997-2.492,1.363c0.332,0.93,1.263,1.396,2.193,1.861c2.992,1.196,6.281,2.093,10.37,2.825l1.33,0.166
		c0.864,0.1,1.761,0.232,2.659,0.332l2.626,0.199l2.659,0.199l3.423,0.232c1.961,0.166,3.922,0.332,5.917,0.399l0.93-0.332
		c0.864-0.665,1.396-1.196,1.894-1.861c1.097-1.462,2.427-3.689,3.69-6.314c0.565-1.296,1.296-3.191,1.761-5.152
		c0.433-1.629,0.765-3.224,1.031-4.853c0.266-2.26,0.531-4.587,0.598-6.88c0.067-1.729,0.1-3.49-0.033-5.218
		c-0.964-0.332-1.894-0.565-2.825-0.698c-1.629-0.232-2.426-0.332-3.257-0.465c-1.662-0.199-3.324-0.466-4.919-0.798l-2.791-0.698
		c-2.394-0.598-4.786-1.196-7.211-1.629c-0.765-0.067-1.495-0.1-2.26-0.1h-0.768V211.319z"/>
	<path style="fill:#5FAD29;" d="M304.975,66.611l-0.897,0.864c-0.765,0.765-1.562,1.529-2.36,2.26
		c-1.662,1.529-2.693,2.492-3.822,3.423c-1.629,1.363-3.257,2.726-4.919,4.054c-1.662,1.33-3.291,2.693-4.752,4.221
		c0.93,1.263,1.861,2.426,2.559,3.755c0.997,1.894,1.828,3.855,2.659,5.85l-0.332-0.83c1.629,3.889,2.726,7.943,3.889,12.796
		c0.332,1.33,0.531,2.061,0.631,2.791l0.598,3.922c0.498,3.058,0.93,6.082,1.296,9.14c0.067,0.366-0.033,0.797-0.199,1.229h1.595
		c0.199-0.964,0.732-1.729,1.396-2.06c1.928-0.897,3.889-1.794,5.85-2.559l2.492-0.93c1.263-0.466,2.526-0.93,3.789-1.43
		c0.864-0.399,1.662-0.83,2.492-1.33c0.665-0.531,1.196-1.097,1.729-1.729c0.698-0.964,1.33-1.928,1.894-2.958
		c0.232-1.163,0.232-1.762,0.199-2.36c-0.399-2.758-1.131-5.517-1.861-8.209c-0.698-2.693-1.529-5.317-2.426-7.91
		c-1.894-5.584-3.955-11.134-6.149-16.618c-1.163-2.526-2.227-4.42-3.389-6.082c-0.033-0.033-0.565-0.598-0.631-0.598
		L304.975,66.611L304.975,66.611z"/>
	<path style="fill:#5FAD29;" d="M498.106,8.681c-2.227,0.466-4.453,1.031-6.68,1.562l-1.33,0.366l-1.994,0.498
		c-0.698,1.163-1.363,1.928-2.193,2.061c-0.433,0.033-0.897,0.167-1.33,0.332c-1.43,0.631-2.526,1.196-3.556,1.928l-2.028,1.43
		l-1.595,1.163l-0.698,0.631c-0.665,1.064-1.229,2.127-1.729,3.257c-0.299,0.864-0.565,1.761-0.798,2.626
		c-0.199,0.797-0.332,1.595-0.466,2.36c-0.332,2.293-0.565,4.188-0.466,6.049c0.067,1.462,0.167,2.925,0.332,4.387
		c0.167,0.93,0.399,2.327,0.864,3.656c0.433,1.33,0.864,2.626,1.363,3.922c0.531,1.263,0.864,1.994,1.229,2.693
		c0.565,1.131,0.765,1.562,0.997,1.928c0.433,0.83,0.732,1.363,1.064,1.828l0.498,0.698l0.732,1.064l1.163-0.565l1.131-0.765
		l0.033,0.067c1.662-0.997,2.592-1.495,3.623-1.994c0.897-0.433,1.761-0.83,2.693-1.229l0.997-0.399
		c0.531-0.199,1.031-0.433,1.595-0.631c3.722-1.296,7.445-2.492,11.234-3.623c0.332-0.83,0.332-1.229,0.266-1.662
		c-0.266-1.562-0.499-2.825-0.765-4.054c-0.366-1.794-0.732-3.59-0.93-5.417c-0.466-3.59-0.466-7.445,0-12.231
		c0.266-2.892,0.765-5.783,1.296-8.675l0.266-1.662c0,0.033,0,0.033,0,0.033c0.033,0,0.1-0.433,0.1-0.93
		c-1.064-0.598-1.562-0.732-2.095-0.797c-0.565-0.033-1.129-0.033-1.729-0.033C498.838,8.614,498.472,8.648,498.106,8.681
		L498.106,8.681z"/>
</g>
<g>
	<path style="fill:#FFFFFF;" d="M256.385,192.274c-4.453,3.755-8.84,7.544-13.228,11.399l-6.647,5.917
		c-5.252,4.62-10.502,9.273-15.687,13.958l-5.484,4.953c-5.152,4.62-10.303,9.273-15.355,13.992
		c-3.656,3.423-7.278,6.88-10.901,10.37c0.366,0.631,0.466,1.296,0.299,1.861l-1.296,4.42l-5.683,19.609l-0.964,3.257
		c-1.064,3.59-2.127,7.179-3.025,10.801c-0.964,3.722-1.928,7.445-2.858,11.167l-0.332,1.163c-0.332,1.263-0.698,2.526-0.93,3.789
		l-3.191,16.751l-0.531,4.587l-0.531,4.587c-0.299,2.426-0.598,4.686-0.732,6.946l-0.665,10.203c-0.1,1.462-0.1,2.492-0.1,3.556
		c-0.067,2.028-0.133,4.088-0.166,6.115c-0.067,1.861,0,3.688,0.033,5.551l0.033,2.394c0.067,1.695,0.1,3.389,0.133,5.118
		c0,0.598,0.067,1.196,0.133,1.794l0.067,0.897l0.266,3.157l0.232,3.157c0.067,0.93,0.133,1.828,0.232,2.758l0.531,4.42l0.498,4.42
		l0.531,3.49c0.366,2.327,0.698,4.652,1.064,6.979l0.366,2.36c0.232,1.462,0.466,2.958,0.732,4.387l1.196,6.082
		c0.332,1.629,0.732,3.291,1.129,4.919l0.232,0.93c0.299,1.562,0.732,3.124,1.163,4.686c0.665,2.227,1.33,4.487,2.061,6.68
		l0.83-0.565l0.067,0.067l8.442-6.115l6.248-4.487c4.752-3.423,9.406-6.847,14.058-10.37l0.1-0.033c0-0.033,0-0.033,0-0.033
		c0.166-0.134,0.332-0.232,0.499-0.366c7.146-5.551,14.623-11.334,22.135-17.05c0.466-0.332,0.765-0.565,1.097-0.83l1.928-1.495
		c0.698-0.498,1.363-1.031,2.028-1.562l0.997-0.765c0-0.033,0.698-0.531,0.698-0.531c2.392-1.894,5.018-4.021,7.577-6.182
		c-0.83-0.964-1.129-1.828-1.428-2.559c-0.466-1.097-0.83-2.16-1.163-3.291c-0.565-1.928-0.997-3.956-1.396-5.917
		c-1.064-5.218-1.994-10.203-2.825-15.189c-1.729-9.871-2.526-19.942-3.124-29.38c-0.266-4.255-0.466-8.508-0.565-12.762
		c-0.134-4.985-0.166-10.004-0.166-14.989c-0.033-1.43,0-2.825,0.033-4.255l0.067-2.127l0.033-2.626c0-1.163,0.033-2.327,0.1-3.49
		l0.166-3.689c0.133-3.057,0.266-6.149,0.598-9.206c0.266-3.057,0.531-6.082,0.83-9.139c0.166-1.396,0.366-2.726,0.598-4.088
		l0.166-0.964l0.631-4.221l0.665-4.288c0.166-1.263,0.466-2.559,0.765-3.789l0.266-1.263l1.031-4.886l1.031-4.853
		c0.765-3.822,1.729-7.611,2.758-11.401c1.894-7.312,3.922-13.86,6.115-20.04c1.828-4.953,3.689-9.871,5.616-14.757
		c0-0.067,0-0.1-0.033-0.1c0-0.033-0.033-0.033-0.067-0.033C256.418,192.241,256.385,192.241,256.385,192.274L256.385,192.274z
		 M215.571,370.716l-0.332-2.426l-0.199-1.263c-0.067-0.598-0.166-1.229-0.266-1.828c-0.598-3.49-1.23-6.946-1.928-10.437
		c-0.199-1.031,0.232-2.193,1.43-2.526c0.1,0,0.199,0,0.299,0c1.163,0,2.028,0.531,2.193,1.43c0.565,2.693,1.031,5.384,1.529,8.076
		l0.399,2.327c0.299,1.662,0.498,3.291,0.732,4.953l0.199,1.629c0.133,0.83,0.232,1.396,0.266,1.961
		c0.133,0.433,0.199,0.864,0.199,1.296l0.1,0.93c0.1,0.598,0.1,1.064-0.166,1.595c-0.299,0.466-0.698,0.798-1.23,0.964
		c-0.166,0-0.332,0-0.466,0c-0.598,0-0.864-0.1-1.129-0.232c-0.399-0.232-0.864-0.765-0.897-1.196l-0.232-1.428
		c-0.1-0.997-0.167-1.462-0.232-1.928l0.1,0.565L215.571,370.716L215.571,370.716z M201.247,372.777
		c-0.199-1.163-0.466-2.293-0.765-3.423c-0.199-0.897-0.465-1.794-0.798-2.659l-0.399-0.864l0.033-0.033
		c-0.366-0.83-0.864-1.695-1.363-2.492c-0.698-0.964-0.897-1.33-0.897-1.928c0-0.565,0.199-1.064,0.565-1.428
		c0.366-0.399,0.93-0.598,1.462-0.598c0.465,0,1.097,0.167,1.428,0.598c0.698,0.864,1.196,1.495,1.662,2.426
		c0.598,1.163,1.129,2.227,1.495,3.257c0.598,1.828,1.064,3.69,1.396,5.551l0.299,1.662l0.266,1.662
		c0.266,1.363,0.433,2.726,0.598,4.088c0.067,0.631-0.232,1.229-0.565,1.562c-0.366,0.399-0.93,0.598-1.462,0.598
		s-1.031-0.199-1.43-0.598c-0.399-0.399-0.498-0.83-0.598-1.43l-0.299-1.495l-0.1,0.033
		C201.845,376.1,201.546,374.438,201.247,372.777L201.247,372.777z M193.27,397.438c-0.399-0.232-0.864-0.732-0.93-1.196
		c-1.196-8.708-2.426-17.416-3.656-26.122c-0.067-0.631-0.1-1.097,0.199-1.595c0.232-0.433,0.665-0.765,1.23-0.964
		c0.166,0,0.332,0,0.466,0c0.565,0,0.83,0.1,1.096,0.232c0.399,0.232,0.864,0.732,0.93,1.229c1.196,8.675,2.426,17.383,3.656,26.09
		c0.067,0.631,0.1,1.097-0.199,1.595c-0.232,0.433-0.665,0.765-1.23,0.964l-0.499,0.033
		C193.969,397.703,193.603,397.603,193.27,397.438L193.27,397.438z"/>
	<path style="fill:#FFFFFF;" d="M113.904,326.147c-4.686,4.62-9.339,9.239-13.992,13.893l-3.324,3.324
		c-6.115,6.115-12.43,12.396-17.814,19.21c-4.387,5.915-7.478,11.1-9.804,16.319c-1.794,4.487-3.025,8.641-3.755,12.796
		c-0.465,4.42-0.465,8.874,0,13.593c0.797,4.554,1.894,8.608,3.356,12.463c1.928,4.255,4.221,8.342,6.515,12.43l2.16,3.855
		l1.662,3.025c2.726,5.018,5.583,10.17,8.94,14.857c1.595,1.894,3.324,3.623,5.285,5.284c2.925,2.093,6.216,3.989,9.739,5.65
		c2.293,0.93,4.62,1.662,6.979,2.227c-0.133-0.531-0.366-0.93-0.531-1.363c-0.199-0.531-0.366-1.031-0.498-1.562
		c-0.199-0.665-0.366-1.33-0.466-1.961l-0.433-2.028l-0.466-2.028l-0.433-2.093c-0.864-3.956-1.695-7.876-2.492-11.832
		c-0.366-1.629-0.631-3.291-0.897-4.919l-0.166-1.229c-0.332-2.16-0.631-4.321-0.93-6.515l-0.199-1.363
		c-0.1-0.698-0.199-1.363-0.232-2.028c-0.133-1.396-0.266-2.791-0.366-4.188c-0.232-2.227-0.366-4.42-0.498-6.647l-0.1-1.064
		c-0.067-0.698-0.1-1.428-0.1-2.127l-0.067-1.695l-0.033-1.695l-0.067-1.662c-0.033-1.363-0.067-2.758,0-4.154l0.1-4.353
		l0.133-4.487c0.033-1.196,0.133-2.394,0.232-3.59l0.199-2.061c0.133-1.794,0.266-3.59,0.433-5.384
		c0.033-0.732,0.1-1.462,0.199-2.193c0.266-1.994,0.531-3.989,0.83-5.949c0.332-2.726,0.732-5.451,1.097-8.209l0.166-1.031
		l0.399-2.559l0.299-1.562c0.598-3.291,1.229-6.548,1.894-9.837c0.83-3.755,1.695-7.544,2.758-11.267
		c0.864-3.124,1.828-6.248,2.825-9.339l1.595-4.853c0-0.033,0-0.1-0.033-0.1s-0.033-0.033-0.067-0.033L113.904,326.147
		L113.904,326.147z"/>
	<path style="fill:#FFFFFF;" d="M294.838,268.683c-0.033,0-0.033,0.033-0.033,0.067c-0.631,6.414-1.196,12.829-1.762,19.277
		c-0.332,4.221-0.598,8.442-0.864,12.695l-0.199,3.124c-0.299,4.719-0.531,9.472-0.598,14.225v1.296c0,0.864-0.033,1.729,0,2.592
		l0.067,1.263c0.033,1.064,0.067,2.127,0.166,3.157c0.199,2.193,0.433,4.453,0.698,6.68c0.332,2.36,0.698,4.719,1.23,7.113
		c0.266,1.064,0.531,2.127,0.83,3.157c3.722-2.592,7.146-5.716,10.502-8.94c4.453-4.288,8.641-8.808,12.829-13.327
		c1.894-2.061,3.822-4.121,5.75-6.149c3.09-3.257,6.182-6.515,9.173-9.871c2.427-2.693,4.719-5.451,7.013-8.242
		c-3.191-1.129-7.312-2.492-11.399-4.453c-3.955-1.928-7.943-4.221-12.563-7.179c-3.656-2.293-7.278-4.886-10.734-7.677
		c-3.456-2.791-6.714-5.783-10.004-8.808c-0.033,0-0.033-0.033-0.067-0.033C294.872,268.65,294.872,268.65,294.838,268.683
		L294.838,268.683z"/>
</g>
<g>
	<path style="fill:#EA9A00;" d="M414.949,144.309c-2.958,1.196-5.317,2.16-7.677,3.157l-1.595,0.698
		c-1.097,0.498-2.193,0.997-3.257,1.529l-0.897,0.433c-1.761,0.93-3.556,1.828-5.218,2.925c-1.994,1.296-3.922,2.659-5.883,4.088
		c-4.853,3.988-9.007,8.342-13.262,12.829c1.229,2.559,2.293,4.953,3.357,7.378c1.097,2.492,2.26,4.919,3.556,7.312
		c0.765,1.462,1.595,2.858,2.459,4.288l1.43,2.426c0.598,1.031,1.163,2.061,1.729,3.124c0.665,1.196,1.296,2.392,2.028,3.556
		c1.33-0.598,2.459-1.396,3.59-2.193l1.994-1.33l1.961-1.363c2.559-1.695,5.051-3.389,7.577-5.018
		c2.592-1.695,5.252-3.257,7.943-4.752c1.462-0.798,2.925-1.529,4.387-2.227c0.598-0.299,1.196-0.598,1.828-0.864
		c1.462-0.598,2.592-1.064,3.656-1.729c0.067-0.466,0-0.83-0.1-1.131l-0.199-1.428c-0.332-2.127-0.631-4.288-0.997-6.414
		l-0.565-3.191c-0.332-1.762-0.631-3.523-0.864-5.285l-0.232-1.396c-0.166-1.163-0.366-2.327-0.433-3.49l-0.167-1.396
		c-0.1-1.064-0.199-2.127-0.199-3.191l-0.033-0.964c-0.033-1.263-0.067-2.559,0-3.822c0.033-0.964,0.067-1.794,0.067-2.659
		c0.033-0.498,0.067-0.997,0.067-1.495c0-0.033,0-0.266-0.033-0.299c-0.033,0-0.033-0.199-0.067-0.199
		C418.869,142.747,416.91,143.544,414.949,144.309L414.949,144.309z"/>
	<path style="fill:#EA9A00;" d="M231.82,113.964c-0.033,0-0.033,0.033-0.067,0.067c-0.033,0.631-0.433,1.229-0.997,1.595
		c-0.732,0.366-1.396,0.797-1.994,1.296c-0.366,0.232-1.097,0.864-1.794,1.595c-0.665,0.732-1.296,1.495-1.894,2.293
		c-1.562,2.227-3.09,4.719-4.32,7.113c-0.997,1.961-1.961,3.989-2.825,6.049c-0.897,2.26-1.562,4.188-2.193,6.216
		c-0.499,1.595-1.031,3.224-1.363,4.886c-0.1,1.129-0.132,2.16-0.067,3.224c0.232,0.93,0.466,1.761,0.798,2.592
		c1.031,0.864,1.695,1.097,2.392,1.263l1.097,0.166l-0.033,0.067l1.894,0.399l0.964,0.199l1.562,0.299l2.825,0.565l2.526,0.531
		l2.492,0.531l1.729,0.366c0.798,0.199,1.595,0.399,2.426,0.565c0-0.033,0.466-0.798,0.466-0.798
		c0.765-2.36,1.296-4.752,1.861-7.146l0.531-2.36c1.23-5.118,2.992-10.038,5.317-14.623l1.031-1.961
		c0.665-1.33,1.33-2.626,2.061-3.922c0.598-1.064,1.23-2.061,1.861-3.09l0.797-1.363c-1.031-0.698-2.061-1.229-3.157-1.695
		c-1.064-0.466-2.726-1.064-4.453-1.595c-0.531-0.199-1.129-0.366-1.695-0.498c-1.729-0.466-2.892-0.765-4.021-1.064l-1.894-0.466
		c-0.698-0.199-1.33-0.665-1.762-1.263c0-0.033-0.033-0.067-0.067-0.067C231.853,113.932,231.853,113.932,231.82,113.964
		L231.82,113.964z"/>
</g>
<path style="fill:#7F7F7F;" d="M279.945,182.895c-0.83,0.199-1.595,0.399-2.392,0.698c-0.698,0.332-1.33,0.732-1.994,1.163
	c-0.299,0.266-0.631,0.565-0.93,0.964c-0.897,1.296-1.695,2.592-2.36,4.021c-0.631,1.794-1.129,3.59-1.428,5.517
	c-0.232,3.224-0.1,6.281,0.1,9.672c0.765,5.252,1.495,10.402,2.791,15.321l0.332,1.428c0.565,2.127,1.097,4.288,1.861,6.348
	c0.93,2.592,1.928,5.152,2.992,7.677l-0.399-0.997l0.531,1.196c0.798,1.794,1.629,3.59,2.659,5.218
	c1.129,1.794,2.293,3.523,3.556,5.284c4.221,5.285,7.744,9.206,11.267,12.729c3.922,3.855,8.209,7.445,12.231,10.736
	c7.179,5.35,14.657,9.771,22.235,13.061c2.127,0.83,4.255,1.595,6.481,2.093c2.626,0.531,4.819,0.997,7.013,1.861
	c0.033,0.033,0.399,0.166,0.433,0.166c0.033,0,0.366,0.133,0.399,0.133c1.229-3.423,2.028-6.912,2.858-11.1
	c0.167-0.83,0.299-1.828,0.366-2.825c0.299-4.088,0.199-8.177-0.299-12.53c-0.631-4.021-1.629-8.043-2.626-12.031
	c-0.765-3.057-1.828-6.015-2.925-8.974c-2.193-4.819-4.786-9.971-7.976-15.687c-2.626-4.719-5.85-9.173-8.907-13.261
	c-0.033,0-0.433-0.465-0.466-0.465c-0.033,0-0.033,0-0.033,0c-0.033,0-0.366-0.332-0.366-0.332c-1.595-2.16-3.822-4.819-6.182-7.378
	c-2.127-2.36-4.587-4.453-6.912-6.414c-5.218-3.755-11.1-7.146-17.947-10.337c-3.157-1.23-6.581-2.193-10.469-2.958
	c-0.565-0.033-1.163-0.067-1.729-0.067C281.108,182.828,280.543,182.862,279.945,182.895L279.945,182.895z M299.82,233.147
	c-0.498-0.134-0.964-0.498-1.229-0.93c-0.332-0.565-0.299-1.097-0.199-1.595c1.229-7.843,2.459-15.654,3.722-23.498
	c0.067-0.498,0.531-0.964,0.93-1.23c0.332-0.166,0.665-0.266,0.997-0.266c1.064,0.199,1.529,0.531,1.828,0.997
	c0.299,0.565,0.266,1.129,0.166,1.595l-1.861,11.765l-1.894,11.765c-0.033,0.465-0.498,0.93-0.897,1.196
	c-0.299,0.166-0.665,0.266-0.997,0.266v0.1L299.82,233.147L299.82,233.147z M307.964,239.063c-0.366-0.332-0.665-0.964-0.598-1.462
	c0.565-4.853,1.229-9.772,1.861-14.657l0.598-4.42c0.033-0.531,0.134-0.997,0.598-1.463c0.366-0.366,0.864-0.565,1.428-0.565
	s1.064,0.199,1.43,0.565c0.366,0.332,0.665,0.964,0.598,1.463l-0.565,4.42c-0.631,4.886-1.296,9.772-1.894,14.657
	c-0.033,0.565-0.167,1.031-0.598,1.462c-0.366,0.366-0.864,0.565-1.428,0.565S308.328,239.429,307.964,239.063L307.964,239.063z
	 M314.776,249.699c-0.332-0.366-0.531-0.864-0.465-1.33c0.299-4.255,0.698-8.508,1.064-12.762l0.399-4.121
	c0.033-0.598,0.199-1.064,0.598-1.428c0.332-0.399,0.864-0.598,1.43-0.598c0.531,0,1.129,0.266,1.562,0.732
	c0.332,0.366,0.531,0.83,0.465,1.296l-0.366,4.121c-0.366,4.255-0.765,8.476-1.097,12.762c-0.067,0.964-0.765,2.028-2.028,2.028
	C315.773,250.397,315.175,250.13,314.776,249.699L314.776,249.699z M326.741,265.585c-0.366-0.332-0.665-0.964-0.598-1.462
	c0.299-2.26,0.565-4.52,0.83-6.78c0.266-2.293,0.266-4.752,0.033-7.478c-0.1-0.531-0.232-1.031-0.399-1.495l-0.199-0.299
	l0.067-0.033c-0.167-0.399-0.399-0.798-0.631-1.163c-0.598-0.433-0.864-0.798-1.031-1.296c-0.133-0.565-0.033-1.129,0.232-1.595
	c0.266-0.433,0.732-0.797,1.229-0.93c0.232,0,0.433,0,0.598,0c0.531,0,0.765,0.067,0.93,0.199c0.499,0.332,0.864,0.631,1.196,1.064
	c0.598,0.897,1.064,1.629,1.363,2.492c0.332,0.964,0.598,1.794,0.665,2.758c0.133,1.196,0.199,2.392,0.199,3.59
	c0,3.124-0.399,6.248-0.797,9.273l-0.232,1.695c-0.033,0.531-0.134,0.997-0.565,1.462c-0.399,0.366-0.93,0.565-1.462,0.565
	C327.638,266.15,327.14,265.951,326.741,265.585L326.741,265.585z"/>
<g>
	<path style="fill:#C03000;" d="M323.019,4.752c0,0.033,0.033,0.067,0.1,0.1l0.631,0.1l-1.562-0.232
		c-2.459,0-4.953,0.232-7.445,0.531c-2.227,0.366-4.453,0.798-6.647,1.33c-0.1,0-0.232,0-0.332,0c-1.263,0-1.994-0.366-2.426-0.964
		l-4.353,1.131c0.232,0.93,0.531,1.761,0.798,2.626l0.232,0.897c0.332,1.163,0.665,2.293,0.864,3.456
		c0.499,2.592,0.864,5.284,1.031,7.91l0.1,1.363c0.1,1.729,0.232,3.456,0.232,5.185c0,1.33,0,2.626-0.067,3.955
		c-0.033,0.964-0.167,1.861-0.266,2.791c-0.266,1.861-0.698,3.324-1.097,4.786c-0.033,0.033,0.366,0.067,0.399,0.1
		c0,0.033,0.433,0.033,0.466,0.033c1.396-0.033,1.961-0.1,2.526-0.166c3.989-0.665,7.943-1.762,11.765-2.825l3.49-0.93l0.93-0.366
		l0.033,0.1c1.229-0.332,2.492-0.631,3.689-1.097l0.732-0.399c0.033,0,0.565-0.665,0.565-0.665c0.399-0.997,0.598-1.729,0.765-2.559
		l0.133-0.997c0.134-1.761,0.166-3.59-0.033-5.417l-0.134-0.964l-0.1-0.93c-0.134-1.296-0.299-2.626-0.465-3.922l-0.366-2.726
		c-0.232-1.928-0.466-3.822-0.732-5.716c-0.299-1.961-0.531-3.456-0.964-4.919c-0.897-0.466-1.595-0.598-2.394-0.698
		C323.085,4.654,323.053,4.687,323.019,4.752L323.019,4.752z"/>
	<path style="fill:#C03000;" d="M496.309,90.6c-2.459,0.433-4.853,1.064-7.245,1.761c-4.387,1.196-8.143,2.426-11.499,3.789
		c-2.293,0.997-3.889,1.729-5.384,2.659c-1.629,0.964-3.191,1.994-4.752,3.124c-2.394,1.894-4.554,3.922-6.414,6.015l-4.221,4.819
		l0.598,1.794c0.433,1.064,0.665,1.662,0.897,2.26c0.565,1.296,0.83,1.961,1.196,2.592l0.399,0.765l0.93,1.695
		c0.531,1.064,1.229,2.061,1.894,3.057l0.864,1.33c0.83,1.229,1.629,2.526,2.392,3.789l0.466,0.698
		c0.732,1.263,1.428,2.526,2.127,3.789c2.061-1.662,3.989-3.291,6.015-4.853c2.426-1.928,4.919-3.789,7.544-5.417l0.864-0.531
		l2.26-1.43l0.964-0.565c1.695-0.897,3.389-1.794,5.085-2.659c0.93-0.466,1.928-0.897,2.925-1.296l1.263-0.531
		c1.064-0.433,2.095-0.864,3.157-1.296l0.964-0.399l0.399-1.196h0.1c-0.299-1.794-0.665-3.556-1.031-5.317
		c-0.366-1.761-0.698-3.523-0.997-5.284c-0.332-1.994-0.598-4.021-0.864-6.049c-0.166-1.163-0.266-2.36-0.399-3.556
		c-0.1-1.163-0.199-2.293-0.332-3.456c-0.033-0.067-0.067-0.1-0.1-0.1L496.309,90.6L496.309,90.6z"/>
</g>
<path style="fill:#03C3EB;" d="M440.406,291.21c0,0.033-0.033,0.033-0.033,0.067v0.466c-0.433,5.551-0.864,10.968-1.562,16.385
	c-0.433,3.456-1.097,6.747-1.894,9.772l-0.299,1.064c-0.399,1.462-0.798,2.925-1.229,4.353c-0.332,1.031-0.698,2.093-1.131,3.09
	c-0.266,0.665-0.565,1.296-0.897,1.928c0.964,0.332,1.861,0.531,2.791,0.698l1.462,0.332l4.288,0.897
	c2.659,0.565,5.35,1.064,8.043,1.562c0.864,0.1,1.695,0.166,2.526,0.166c1.064,0,2.093-0.1,3.157-0.199l0.897-0.1l0.864-0.067
	c1.495-0.232,3.025-0.498,4.487-0.93c0.299-0.332,0.498-0.698,0.698-1.196c0.93-2.725,1.43-5.118,1.861-7.611
	c0.266-2.127,0.531-4.487,0.732-6.847c0.167-2.394,0.299-4.819,0.433-7.213c0.167-2.592,0.266-4.985,0.366-7.378
	c0.1-1.894,0.199-3.789,0.133-5.683c-1.363-0.366-2.626-0.531-3.922-0.698l-0.964-0.166l-2.758-0.299
	c-1.861-0.199-3.688-0.433-5.517-0.698l-4.353-0.665l-3.257-0.498c-2.16-0.299-3.49-0.499-4.853-0.565
	C440.44,291.176,440.44,291.21,440.406,291.21L440.406,291.21z"/>
<path style="fill:#111111;" d="M383.907,58.228c-0.266,2.725-0.498,5.451-0.565,8.175c-0.067,1.263-0.033,2.492-0.1,3.722
	c-0.199,0.997-0.531,1.994-0.698,3.025c-0.232,1.263-0.299,2.592-0.433,3.855c-0.166,0.997-0.266,1.961-0.1,2.958
	c0.199,1.064,0.765,2.028,1.529,2.791c0.665,0.698,1.43,1.064,2.293,1.428c0.433,0.199,0.964,0.199,1.43,0.232
	c0.732,0,1.33-0.266,1.961-0.565c0.864-0.399,1.363-1.495,1.363-2.427c0-1.229-0.83-2.36-2.028-2.693
	c-0.199-0.033-0.399-0.1-0.598-0.132c-0.032-0.163-0.065-0.294-0.097-0.425l-0.068-0.008c0.017-0.063,0.035-0.125,0.052-0.19
	c-0.091-1.067-0.152-2.133-0.184-3.2c-0.033-1.263-0.033-2.492-0.134-3.722c-0.067-0.598,0-1.196,0-1.794
	c0.033-0.665,0.033-1.363,0.033-2.061c0.067-2.992,0.299-5.982,0.598-8.974c0.1-1.163-1.064-2.127-2.127-2.127
	C384.771,56.102,384.006,57.066,383.907,58.228L383.907,58.228z"/>
<path style="fill:#03C3EB;" d="M393.677,20.307c-2.093,0.93-4.154,1.928-6.182,3.025c-2.693,1.462-5.317,2.958-7.811,4.719
	c-0.033,0-0.332,0.299-0.332,0.299c0,0.033-0.266,0.299-0.266,0.332l0.83,0.797c0.631,0.665,1.163,1.296,1.729,1.994
	c2.526,3.224,4.353,7.046,5.317,11.134c0.665,2.858,1.163,5.783,1.562,8.741c0.433,3.224,0.631,6.115,0.598,8.873
	c-0.067,3.324-0.232,6.68-0.466,10.004c-0.1,1.33-0.232,2.659-0.366,4.021l-0.266,2.726c-0.033,0.466-0.133,0.83-0.232,1.196
	l1.097,0.133v0.1l0.93-0.167c1.43-0.199,2.925-0.433,4.32-0.93c1.695-0.598,3.389-1.296,5.051-1.994
	c1.861-0.864,3.722-1.729,5.551-2.626l1.629-0.797c1.861-0.864,3.688-1.761,5.451-2.825c0.033,0,0-0.83,0-0.864
	c-0.798-5.551-2.16-11.566-3.722-18.246c-1.562-6.747-3.389-13.925-5.949-20.739c-0.565-1.33-1.031-2.426-1.595-3.49
	c-0.631-1.129-1.296-2.193-2.028-3.257c-0.132-0.266-0.698-0.897-1.33-1.529l-0.765-0.631c-0.232-0.132-0.499-0.299-0.732-0.465
	c0,0-0.466-0.067-0.499-0.067C394.675,19.942,394.175,20.109,393.677,20.307L393.677,20.307z"/>
<g>
	<path style="fill:#161616;" d="M357.916,244.945c-0.897-3.822-2.26-7.478-3.789-11.134h0.033c-0.199-0.433-0.366-0.897-0.565-1.33
		c0.033,0.033,0.033,0.1,0.067,0.133c-0.1-0.232-0.199-0.499-0.332-0.765c-0.033-0.1-0.067-0.166-0.1-0.266c0,0.033,0,0.033,0,0.067
		c0-0.033-0.033-0.067-0.033-0.1c0-0.033-0.033-0.067-0.033-0.1c-0.033-0.1-0.067-0.166-0.1-0.266c0,0,0,0,0,0.033
		c0,0.033,0.033,0.067,0.033,0.1v0.033c0-0.033-0.033-0.067-0.033-0.133c-0.1-0.199-0.167-0.399-0.266-0.598
		c-0.033-0.067-0.067-0.133-0.1-0.199h0.033c0,0-0.033,0-0.033-0.033c-0.033-0.067-0.033-0.1-0.067-0.166v0.033
		c-3.556-8.175-8.043-16.02-13.128-23.364c-5.218-7.577-11.2-14.79-18.179-20.805c-3.59-3.057-7.711-5.551-11.865-7.744
		c-4.121-2.16-8.376-4.021-12.862-5.317c-1.994-0.598-4.154-0.864-6.216-1.129c-2.093-0.299-4.154-0.531-6.281-0.531
		c-0.864,0-1.762,0.067-2.659,0.134c-2.526,0.266-4.919,0.797-7.245,1.861c-0.698,0.332-1.396,0.665-2.028,1.064
		c-0.134-0.199-0.299-0.399-0.465-0.565c-1.662-1.629-3.989-1.396-5.65,0c-8.907,7.412-17.715,14.922-26.555,22.401
		c-3.124,2.659-6.182,5.451-9.273,8.175c-4.554,3.989-9.074,8.01-13.626,11.999c-13.327,11.765-26.588,23.63-39.616,35.761
		c-13.46,12.563-26.754,25.359-40.281,37.889c-6.747,6.249-13.626,12.363-20.44,18.479c-6.414,5.75-12.663,11.633-18.944,17.481
		c-7.013,6.515-14.125,12.929-21.104,19.442c-2.992,2.791-5.85,5.65-8.474,8.708c-4.022,4.719-7.811,9.771-10.801,15.221
		c-1.396,2.559-2.526,5.284-3.623,7.976c-1.131,2.659-2.028,5.384-2.791,8.143c-0.864,3.224-1.196,6.647-1.462,9.971
		c-0.299,3.49-0.133,6.979,0.199,10.435c0.665,6.714,2.327,13.195,5.118,19.31c0.154,0.335,0.351,0.639,0.509,0.971
		c-0.549-0.039-1.097-0.1-1.635-0.1c-1.463,0-2.892,0.133-4.387,0.332c-5.085,0.698-10.038,2.028-14.857,3.755
		c-6.249,2.293-12.164,5.384-18.081,8.409c-1.396,0.732-2.758,1.495-4.121,2.293c-1.861,1.064-3.755,2.193-5.185,3.822
		c-2.992,3.356-2.36,8.974,1.495,11.366c3.556,2.26,7.644,2.825,11.765,3.257c1.961,0.199,3.889,0.134,5.816,0.167
		c0,0.399,0,0.765,0,1.163c-0.665,3.789-1.861,7.412-2.992,11.067c-0.332,1.064-0.665,2.16-0.964,3.257
		c-0.665,2.16-1.097,4.321-1.396,6.58c-0.232,2.061,0.399,4.554,1.894,6.082c1.695,1.695,4.719,2.16,6.979,1.562
		c3.291-0.897,6.115-2.659,9.04-4.288c0.199,0.598,0.366,1.229,0.498,1.894c0.246,1.047,0.395,2.151,0.523,3.232
		c0.478,4.13,0.924,8.143,2.335,12.089c0.698,1.928,1.662,3.755,2.693,5.517c0.897,1.495,2.093,2.559,3.49,3.523
		c0.732,0.366,1.462,0.598,2.26,0.665c0.366,0.033,0.698,0.1,1.064,0.134c0.797-0.067,1.595-0.134,2.392-0.266
		c0.698-0.266,1.363-0.531,2.028-0.798c0.964-0.598,1.894-1.263,2.791-1.994c3.59-2.958,6.314-6.747,8.873-10.569
		c5.118-7.677,7.811-16.584,11.334-25.06c0.631-1.529,1.296-3.025,1.961-4.587c0.386-0.874,0.598-1.731,0.665-2.615
		c0.383,0.32,0.73,0.666,1.127,0.98c9.904,7.843,22.534,12.563,35.196,12.63c2.925,0.033,5.883-0.433,8.775-0.864
		c2.693-0.399,5.351-0.997,8.01-1.629c2.26-0.531,4.487-1.263,6.747-1.894c9.538-2.659,18.246-7.512,26.389-13.061
		c7.512-5.085,14.623-10.636,22.001-15.886c7.378-5.252,14.857-10.303,22.068-15.754c7.577-5.716,14.956-11.633,22.434-17.481
		c7.577-5.883,15.056-11.865,22.401-18.014c7.211-6.015,14.058-12.463,21.071-18.712c6.78-6.049,13.86-11.798,20.673-17.814
		c6.979-6.182,13.793-12.463,20.274-19.143c5.551-5.75,10.868-11.7,16.352-17.515c2.592-2.726,5.152-5.451,7.577-8.309
		c2.992-3.523,6.049-7.013,8.775-10.768c2.659-3.623,4.654-7.478,6.314-11.633c1.363-3.389,2.095-6.979,2.791-10.535
		c0.433-2.293,0.698-4.587,0.997-6.88c0.698-5.317,0.232-10.702-0.531-15.986C359.976,253.488,358.979,249.2,357.916,244.945z
		 M262.126,190.145c-0.067-0.259-0.142-0.523-0.258-0.73c-0.234-0.375-0.645-0.579-1.032-0.797c0.663-0.557,1.324-1.116,1.993-1.669
		C262.479,187.968,262.352,189.073,262.126,190.145z M25.83,460.086c0-0.016,0-0.021,0-0.033c-0.033-0.166-0.067-0.366-0.067-0.531
		c0.033,0.166,0.033,0.299,0.067,0.466c0,0.016,0,0.025,0,0.033c0.033,0.133,0.033,0.266,0.033,0.433
		C25.864,460.318,25.83,460.186,25.83,460.086z M70.266,464.406l-0.997,3.523c-1.994,7.046-4.088,14.358-6.946,21.171
		c-1.695,3.755-3.822,7.345-6.348,10.702c-1.163,1.396-2.394,2.659-3.789,3.789c0,0,0,0-0.033,0c-0.012,0-0.061,0-0.133,0
		c-0.207,0.136-0.431,0.251-0.63,0.366h-0.033c-0.1-0.1-0.199-0.199-0.299-0.299c-0.015-0.021-0.027-0.044-0.041-0.067
		c-0.049,0-0.083,0-0.092,0c-0.103-0.163-0.204-0.324-0.304-0.489c-0.043-0.059-0.085-0.117-0.127-0.176
		c0.024,0.028,0.045,0.053,0.069,0.081c-0.717-1.171-1.36-2.355-1.93-3.638c-0.531-1.363-0.964-2.693-1.33-4.154
		c-0.366-1.529-0.598-3.124-0.83-4.686l-0.266-1.828c-0.232-1.662-0.531-3.257-0.897-4.853c-0.199-0.698-0.433-1.33-0.897-2.293
		c-0.332-0.83-0.732-1.762-1.396-2.36c-0.433-0.466-0.897-0.864-1.396-1.229c-0.499-0.299-1.031-0.433-1.595-0.465
		c-0.299-0.067-0.598-0.1-0.897-0.1c-0.299,0-0.598,0.033-0.93,0.134c-0.997,0.134-1.794,0.531-2.925,1.064
		c-1.495,0.732-2.992,1.462-4.52,2.16c-0.449,0.196-0.897,0.344-1.406,0.406c-0.075,0.02-0.148,0.04-0.223,0.059
		c0.003-0.013,0.007-0.027,0.009-0.04c-0.025,0.003-0.051,0.005-0.076,0.007c0.366-1.595,0.83-3.157,1.33-4.719l0.499-1.662
		l0.399-1.363l1.761-5.783c0.266-0.83,0.466-1.695,0.598-2.526l0.299-1.562c0.133-0.598,0.199-1.196,0.299-1.794l0.1-0.93
		c0-1.33-0.133-2.559-0.332-3.889c-0.133-1.097-0.698-2.127-1.263-3.09c-1.363-2.26-4.453-2.892-5.716-3.025
		c-0.665-0.1-1.33-0.166-1.994-0.232l-0.964-0.067c-0.95-0.172-1.849-0.346-2.742-0.647c-0.127-0.028-0.255-0.055-0.382-0.084
		c0.021-0.011,0.043-0.02,0.065-0.031c-0.032-0.012-0.065-0.023-0.099-0.036c4.453-2.127,8.974-4.154,13.494-6.115
		c5.451-2.193,10.602-3.689,15.754-4.62c1.031-0.1,2.028-0.166,3.058-0.199h0.332c1.196,0,2.394,0.165,3.789,0.366
		c0.465,0.067,0.964,0.167,1.396,0.266c0.598,0.134,1.196,0.199,1.761,0.199s1.064-0.067,1.662-0.133
		c0.001,0.001,0.001,0.004,0.003,0.007h0.001c1.227,2.123,2.455,4.245,3.715,6.369l0.83,1.33c1.131,1.928,2.327,3.855,3.523,5.783
		c1.43,2.127,2.892,4.255,4.42,6.381c0.218,0.299,0.462,0.597,0.705,0.896c-0.021,0.001-0.041-0.007-0.063-0.004
		c0.019,0.027,0.039,0.053,0.059,0.08C72.959,460.485,70.931,462.114,70.266,464.406z M102.867,462.837
		c-3.523-1.662-6.814-3.556-9.739-5.65c-1.961-1.662-3.688-3.389-5.284-5.284c-3.357-4.686-6.216-9.837-8.94-14.857l-1.662-3.025
		l-2.16-3.855c-2.293-4.088-4.587-8.177-6.515-12.43c-1.462-3.855-2.559-7.91-3.357-12.463c-0.466-4.719-0.466-9.173,0-13.594
		c0.732-4.154,1.961-8.309,3.755-12.796c2.327-5.218,5.417-10.403,9.804-16.319c5.384-6.814,11.7-13.095,17.814-19.21l3.324-3.324
		c4.652-4.652,9.306-9.273,13.992-13.893l0.033-0.033c0.023,0,0.033,0.013,0.045,0.023c0,0.003-0.001,0.004-0.001,0.007
		c0.007,0.005,0.013,0.011,0.025,0.011c0.033,0,0.033,0.067,0.033,0.1l-1.595,4.853c-0.997,3.09-1.961,6.216-2.825,9.339
		c-1.064,3.722-1.928,7.51-2.758,11.267c-0.665,3.291-1.296,6.547-1.894,9.837l-0.299,1.562l-0.399,2.559l-0.167,1.031
		c-0.366,2.758-0.765,5.484-1.097,8.209c-0.299,1.961-0.565,3.956-0.83,5.949c-0.1,0.732-0.166,1.462-0.199,2.193
		c-0.166,1.794-0.299,3.59-0.433,5.384l-0.199,2.061c-0.1,1.196-0.199,2.392-0.232,3.59l-0.133,4.487l-0.1,4.353
		c-0.067,1.396-0.033,2.791,0,4.154l0.067,1.662l0.033,1.695l0.067,1.695c0,0.698,0.033,1.428,0.1,2.127l0.1,1.064
		c0.133,2.227,0.266,4.42,0.498,6.647c0.1,1.396,0.232,2.791,0.366,4.188c0.033,0.665,0.133,1.33,0.232,2.028l0.199,1.363
		c0.299,2.193,0.598,4.353,0.93,6.515l0.166,1.229c0.266,1.629,0.531,3.291,0.897,4.919c0.798,3.956,1.629,7.876,2.492,11.832
		l0.433,2.095l0.466,2.028l0.433,2.028c0.1,0.631,0.266,1.296,0.466,1.961c0.133,0.531,0.299,1.031,0.498,1.562
		c0.143,0.372,0.335,0.72,0.47,1.148c0.023,0.04,0.052,0.079,0.076,0.119c-0.017-0.004-0.033-0.007-0.051-0.011
		c0,0.033,0.033,0.067,0.033,0.1C107.486,464.499,105.16,463.768,102.867,462.837z M166.048,445.854
		c-8.209,6.216-15.321,10.569-22.467,13.759c-7.278,2.892-14.59,4.953-21.769,6.082c-1.595,0.132-3.191,0.232-4.786,0.232
		c-0.797,0-1.595-0.033-2.459-0.166c-0.096-0.007-0.198-0.015-0.296-0.023c0.007-0.016,0.027-0.021,0.033-0.037c0,0-0.033,0-0.067,0
		c0.332-0.665,0.299-1.462-0.033-2.093c-0.266-0.366-0.498-0.798-0.565-1.064c-0.033-0.1-0.067-0.167-0.1-0.266l-0.033,0.067
		c0-0.033,0-0.067,0-0.067l0.033-0.033c-0.698-2.127-1.229-4.32-1.894-7.245l-0.864-3.623l-1.196-5.052
		c-0.498-2.26-0.997-4.453-1.396-6.714c-0.499-2.726-0.93-5.417-1.263-7.744c-0.531-3.988-1.064-7.91-1.33-11.898
		c-0.166-2.426-0.332-4.886-0.466-7.312c-0.1-1.562-0.133-3.124-0.133-4.719l-0.033-1.562c-0.033-1.529-0.067-3.057,0-4.587
		l0.199-7.943l0.1-1.163l0.2-2.228l0.133-2.028l0.531-6.88l0.531-3.922c0.665-4.985,1.33-9.971,2.227-14.956
		c1.562-8.808,3.357-16.751,5.584-24.295c1.229-4.154,2.559-8.275,3.955-12.396c0.631-1.961,1.363-3.922,2.193-6.049
		c0.063-0.174,0.125-0.348,0.187-0.522c0.003-0.005,0.005-0.011,0.009-0.017l14.458-13.893c7.811-7.544,15.654-15.056,23.364-22.633
		c6.88-6.747,13.759-13.527,20.573-20.339l4.587-4.52c0,0,0.033,0,0.067,0h0.005c0,0.003-0.001,0.004-0.003,0.007h0.033
		c0.033,0.033,0.033,0.067,0.033,0.1l-3.789,13.061l-5.252,17.981c-0.366,1.23-0.665,2.526-0.964,3.789l-0.366,1.396l-1.263,4.919
		l-1.296,4.953l-0.266,1.064c-0.232,0.798-0.466,1.629-0.598,2.459l-0.798,4.188l-0.798,4.221c-0.466,2.293-0.897,4.62-1.33,6.912
		l-0.199,1.097c-0.232,1.064-0.366,2.127-0.498,3.191l-0.133,1.263l-0.466,3.59c-0.465,3.423-0.897,6.814-1.129,10.237l-0.332,4.487
		l-0.299,4.487c-0.133,1.861-0.199,3.755-0.266,5.716c-0.033,1.462-0.1,2.892-0.166,4.353l-0.033,0.93
		c-0.033,0.332-0.033,0.698,0,1.064l0.067,9.306c0,0.765,0,1.562,0.067,2.327l0.166,2.327l0.166,2.327l0.1,1.662
		c0.166,2.227,0.299,4.453,0.565,6.68c0.299,2.992,0.598,5.949,0.997,8.907l0.366,2.925c0.299,2.227,0.598,4.453,0.93,6.68
		l0.366,2.426c0.332,2.227,0.665,4.453,1.064,6.68l0.864,4.853c0.232,1.43,0.531,2.858,0.864,4.288l0.266,1.097
		c0.433,2.36,1.064,4.654,1.662,6.946l0.266,1.064c0.299,1.064,0.598,2.127,0.897,3.157l0.399,1.363l0.302,1.119
		c-0.003,0.001-0.004,0.003-0.007,0.005l0.033,0.1l-3.057,2.327L166.048,445.854z M238.136,391.713c0,0-0.698,0.499-0.698,0.531
		l-0.997,0.765c-0.665,0.531-1.33,1.064-2.028,1.562l-1.928,1.495c-0.332,0.266-0.631,0.499-1.097,0.83
		c-7.51,5.716-14.989,11.499-22.135,17.05c-0.166,0.134-0.332,0.232-0.498,0.366c0,0,0,0,0,0.033l-0.1,0.033
		c-4.654,3.523-9.306,6.946-14.058,10.37l-6.249,4.487l-8.442,6.115l-0.067-0.067c-0.248,0.183-0.495,0.371-0.742,0.554
		c-0.004-0.011-0.008-0.021-0.012-0.033l-0.073,0.049c-0.732-2.193-1.396-4.453-2.061-6.68c-0.433-1.562-0.864-3.124-1.163-4.686
		l-0.232-0.93c-0.399-1.629-0.798-3.291-1.129-4.919l-1.196-6.082c-0.266-1.428-0.498-2.925-0.732-4.387l-0.366-2.36
		c-0.366-2.327-0.698-4.654-1.064-6.979l-0.531-3.49l-0.498-4.42l-0.531-4.42c-0.1-0.93-0.166-1.828-0.232-2.758l-0.232-3.157
		l-0.266-3.157l-0.067-0.897c-0.067-0.598-0.133-1.196-0.133-1.794c-0.033-1.729-0.067-3.423-0.132-5.118l-0.033-2.394
		c-0.033-1.861-0.1-3.688-0.033-5.551c0.033-2.028,0.1-4.088,0.166-6.115c0-1.064,0-2.095,0.1-3.556l0.665-10.203
		c0.133-2.26,0.433-4.52,0.732-6.946l0.531-4.587l0.531-4.587l3.191-16.751c0.232-1.263,0.598-2.526,0.93-3.789l0.332-1.163
		c0.93-3.722,1.894-7.445,2.858-11.167c0.897-3.623,1.961-7.211,3.025-10.801l0.964-3.257l5.683-19.609l1.296-4.42
		c0.159-0.542,0.043-1.176-0.287-1.785c0.005-0.005,0.012-0.011,0.017-0.017c0,0-0.025-0.029-0.031-0.06
		c0.005-0.004,0.009-0.009,0.015-0.013c-0.001-0.001-0.004-0.001-0.005-0.004c3.619-3.486,7.238-6.938,10.889-10.358
		c5.051-4.719,10.203-9.373,15.355-13.992l5.484-4.953c5.185-4.686,10.435-9.339,15.687-13.958l6.647-5.917
		c4.387-3.855,8.775-7.644,13.228-11.399c0-0.033,0.033-0.033,0.033-0.033c0.032,0,0.063,0.003,0.064,0.032
		c0.001,0.003,0.005,0.004,0.005,0.008c0.033,0,0.033,0.033,0.033,0.1c-1.928,4.886-3.789,9.804-5.616,14.757
		c-2.193,6.182-4.221,12.729-6.115,20.04c-1.031,3.789-1.994,7.577-2.758,11.401l-1.031,4.853l-1.031,4.886l-0.266,1.263
		c-0.299,1.23-0.598,2.526-0.765,3.789l-0.665,4.288l-0.631,4.221l-0.166,0.964c-0.232,1.363-0.433,2.693-0.598,4.088
		c-0.299,3.057-0.565,6.082-0.83,9.139c-0.332,3.057-0.466,6.149-0.598,9.206l-0.166,3.689c-0.067,1.163-0.1,2.327-0.1,3.49
		l-0.033,2.626l-0.067,2.127c-0.033,1.43-0.067,2.825-0.033,4.255c0,4.985,0.033,10.004,0.166,14.989
		c0.1,4.255,0.299,8.508,0.565,12.762c0.598,9.44,1.396,19.509,3.124,29.38c0.83,4.985,1.762,9.971,2.825,15.189
		c0.399,1.961,0.83,3.988,1.396,5.915c0.332,1.129,0.698,2.193,1.163,3.291c0.28,0.686,0.561,1.488,1.28,2.38
		c0.031,0.032,0.071,0.055,0.103,0.087c-0.008,0.007-0.015,0.013-0.023,0.019c0.033,0.033,0.033,0.033,0.067,0.067
		C243.154,387.692,240.528,389.819,238.136,391.713z M276.19,359.475c-4.62,3.855-9.273,7.711-13.826,11.665l-6.314,5.484
		l-1.196,0.93c-1.464,1.272-2.945,2.522-4.408,3.787c-0.077-0.049-0.128-0.151-0.208-0.191l-0.067,0.033
		c-1.794-4.752-2.858-9.638-4.021-15.022c-1.163-5.517-2.093-11.067-2.858-16.153c-0.399-3.257-0.83-6.481-1.129-9.739
		c-0.366-3.69-0.665-7.345-0.964-11.067c-0.565-7.644-0.864-13.958-0.93-19.942c-0.067-3.456-0.132-6.912-0.1-10.37l0.033-2.626
		c0-2.626,0.033-5.218,0.134-7.844c0.067-2.093,0.166-4.188,0.266-6.248l0.067-1.529c0.033-0.997,0.067-1.994,0.133-3.025
		c0.366-3.789,0.698-7.577,1.031-11.334c0.565-3.822,1.129-7.611,1.695-11.399c0.134-0.864,0.332-1.695,0.665-3.157
		c0.565-2.892,1.163-5.75,1.762-8.608l0.466-2.16l0.565-2.791c0.498-2.193,1.064-4.353,1.629-6.515
		c0.798-3.257,1.662-6.481,2.559-9.672c2.892-10.303,6.647-20.107,10.27-29.148c0.033,0,0.033,0.067,0.033,0.134
		c0.027-0.063,0.051-0.128,0.077-0.191c-0.009,0.073-0.04,0.143-0.048,0.218c0.067,0,0.067,0.232,0.067,0.266
		c-0.665,6.714,0.433,13.36,1.462,18.412c0.798,4.255,1.762,8.541,2.958,12.762c1.129,3.922,2.592,7.91,4.62,12.563
		c1.695,3.789,3.556,7.777,6.149,11.234c4.335,5.856,8.671,10.988,13.302,15.787c0,0.003-0.004,0.004-0.004,0.007
		c0.032,0,0.035,0.032,0.064,0.063v0.019c-0.097,0.264-0.164,0.589-0.196,0.981c-0.498,4.919-0.964,9.837-1.396,14.757l-0.332,3.423
		c-0.199,2.193-0.433,4.387-0.565,6.613l-0.399,5.783c-0.399,5.551-0.765,11.067-1.097,16.818c-0.067,1.129-0.1,2.227-0.134,3.324
		l-0.1,2.061c-0.033,1.196-0.1,2.426-0.033,3.623v1.263c0.033,1.263,0.033,2.526,0.134,3.789c0.133,1.828,0.266,3.623,0.433,5.451
		c0.299,3.291,0.698,6.548,1.263,9.804c0.199,1.163,0.465,2.327,0.765,3.49l0.232,1.031c0.191,0.734,0.418,1.342,0.672,1.948
		c0.009,0.024,0.024,0.048,0.024,0.073C285.03,352.064,280.61,355.786,276.19,359.475z M332.624,305.036
		c-2.992,3.356-6.082,6.613-9.173,9.871c-1.928,2.028-3.855,4.088-5.75,6.149c-4.188,4.52-8.376,9.04-12.829,13.327
		c-1.928,1.861-3.889,3.69-5.917,5.417c-1.451,1.314-2.941,2.583-4.415,3.879c-0.033-0.127-0.068-0.258-0.103-0.383
		c-0.001-0.004-0.001-0.008-0.003-0.011c-0.021,0.015-0.043,0.029-0.064,0.044c-0.299-1.031-0.565-2.093-0.83-3.157
		c-0.531-2.394-0.897-4.752-1.23-7.113c-0.266-2.227-0.499-4.487-0.698-6.68c-0.1-1.031-0.133-2.093-0.167-3.157l-0.067-1.263
		c-0.033-0.864,0-1.729,0-2.592v-1.296c0.067-4.752,0.299-9.505,0.598-14.225l0.199-3.124c0.266-4.255,0.531-8.474,0.864-12.695
		c0.565-6.448,1.129-12.862,1.762-19.277c0-0.033,0-0.067,0.033-0.067c0.033-0.033,0.033-0.033,0.033-0.033
		c0.007,0,0.012,0.001,0.017,0.004c0,0,0,0,0-0.001c0.013,0.009,0.024,0.023,0.047,0.023c3.291,3.025,6.548,6.015,10.004,8.807
		s7.079,5.384,10.736,7.677c4.62,2.958,8.608,5.252,12.563,7.179c3.623,1.729,7.245,2.992,10.236,4.054
		c0.366,0.1,0.732,0.232,1.097,0.332c0,0.033,0,0.033-0.033,0.033c0.033,0.033,0.067,0.033,0.1,0.033
		C337.343,299.585,335.05,302.343,332.624,305.036z M348.544,273.262c-0.067,0.997-0.199,1.994-0.366,2.825
		c-0.83,4.188-1.629,7.677-2.858,11.1c-0.033,0-0.366-0.133-0.399-0.133c-0.033,0-0.399-0.134-0.433-0.166
		c-2.193-0.864-4.387-1.33-7.013-1.861c-2.227-0.499-4.353-1.263-6.481-2.093c-7.577-3.291-15.056-7.711-22.235-13.061
		c-4.022-3.291-8.309-6.88-12.231-10.734c-3.523-3.523-7.046-7.445-11.267-12.729c-1.263-1.761-2.426-3.49-3.556-5.284
		c-1.031-1.629-1.861-3.423-2.659-5.218l-0.447-1.008c-0.938-2.267-1.844-4.55-2.677-6.87c-0.765-2.061-1.296-4.221-1.861-6.348
		l-0.332-1.428c-1.296-4.919-2.028-10.071-2.791-15.321c-0.199-3.389-0.332-6.448-0.1-9.672c0.299-1.928,0.797-3.722,1.428-5.517
		c0.665-1.43,1.462-2.726,2.36-4.021c0.299-0.399,0.631-0.698,0.93-0.964c0.665-0.433,1.296-0.83,1.994-1.163
		c0.798-0.299,1.562-0.498,2.392-0.698c0.598-0.033,1.163-0.067,1.762-0.067c0.565,0,1.163,0.033,1.729,0.067
		c3.889,0.765,7.312,1.729,10.469,2.958c6.847,3.191,12.729,6.58,17.947,10.337c2.327,1.961,4.786,4.054,6.912,6.414
		c2.059,2.232,4.016,4.54,5.541,6.528c0.315,0.379,0.629,0.757,0.941,1.136c0.032,0.028,0.057,0.047,0.065,0.047c0,0,0,0,0.005,0
		c-0.096-0.135-0.199-0.274-0.304-0.399c0.125,0.125,0.224,0.264,0.322,0.399c0.003,0,0.007,0,0.011,0
		c0.033,0,0.433,0.465,0.466,0.465c3.057,4.088,6.281,8.541,8.907,13.262c3.191,5.716,5.783,10.868,7.976,15.687
		c1.097,2.958,2.16,5.915,2.925,8.974c0.997,3.988,1.994,8.01,2.626,12.031C348.743,265.086,348.843,269.175,348.544,273.262z"/>
	<path style="fill:#161616;" d="M127.265,405.347c-0.332-0.167-0.665-0.299-1.263-0.299c-0.166,0-0.366,0.033-0.598,0.033
		c-0.631,0.232-1.163,0.631-1.43,1.129c-0.332,0.598-0.366,1.131-0.232,1.861l1.662,11.633l1.629,11.633
		c0.1,0.399,0.299,0.732,0.598,1.031c0.433,0.466,1.064,0.698,1.662,0.698c0.598,0,1.229-0.232,1.662-0.698
		c0.399-0.366,0.732-1.064,0.665-1.629c-1.031-8.01-2.16-15.986-3.291-23.963C128.262,406.211,127.731,405.646,127.265,405.347z"/>
	<path style="fill:#161616;" d="M140.493,420.37c-0.232-2.327-0.399-4.652-0.531-7.013l-0.133-1.562l-0.598-9.373
		c-0.067-1.196-0.897-2.028-2.028-2.028c-0.531,0-1.129,0.232-1.529,0.665c-0.366,0.399-0.531,0.864-0.498,1.363l0.399,6.182
		l0.399,6.216c0.1,1.961,0.299,3.922,0.498,5.85c0.366,3.656,1.33,7.113,2.327,10.303c0.299,0.897,1.097,1.529,2.028,1.529
		l0.498-0.067c0.531-0.167,0.997-0.565,1.263-1.064c0.266-0.466,0.299-0.997,0.166-1.462c-0.366-1.163-0.698-2.327-1.031-3.523
		C141.158,424.457,140.758,422.364,140.493,420.37z"/>
	<path style="fill:#161616;" d="M192.606,369.02c-0.067-0.498-0.531-0.997-0.93-1.229c-0.266-0.134-0.531-0.232-1.096-0.232
		c-0.133,0-0.299,0-0.466,0c-0.565,0.199-0.997,0.531-1.23,0.964c-0.299,0.498-0.266,0.964-0.199,1.595
		c1.23,8.708,2.459,17.416,3.656,26.124c0.067,0.465,0.531,0.964,0.93,1.196c0.332,0.167,0.698,0.266,1.064,0.266l0.498-0.033
		c0.565-0.199,0.997-0.531,1.23-0.964c0.299-0.498,0.266-0.964,0.199-1.595C195.033,386.403,193.802,377.695,192.606,369.02z"/>
	<path style="fill:#161616;" d="M205.368,372.842l-0.299-1.662c-0.332-1.861-0.797-3.722-1.396-5.551
		c-0.366-1.031-0.897-2.093-1.495-3.257c-0.465-0.93-0.964-1.562-1.662-2.426c-0.332-0.433-0.964-0.598-1.428-0.598
		c-0.531,0-1.097,0.199-1.462,0.598c-0.366,0.366-0.565,0.864-0.565,1.428c0,0.598,0.199,0.964,0.897,1.928
		c0.498,0.798,0.997,1.662,1.363,2.492l-0.033,0.033l0.399,0.864c0.332,0.864,0.598,1.762,0.798,2.659
		c0.299,1.129,0.565,2.26,0.765,3.423c0.231,1.284,0.462,2.568,0.525,3.623c0.06,0.38,0.116,0.762,0.171,1.145l0.236,1.181
		c0.1,0.598,0.199,1.031,0.598,1.43c0.399,0.399,0.897,0.598,1.428,0.598c0.531,0,1.097-0.199,1.463-0.598
		c0.332-0.332,0.631-0.93,0.565-1.562c-0.166-1.363-0.332-2.726-0.598-4.088L205.368,372.842z"/>
	<path style="fill:#161616;" d="M219.892,372.61c-0.033-0.565-0.132-1.129-0.266-1.961l-0.199-1.629
		c-0.232-1.662-0.433-3.291-0.732-4.953l-0.399-2.327c-0.498-2.693-0.964-5.384-1.529-8.076c-0.166-0.897-1.031-1.43-2.193-1.43
		c-0.1,0-0.199,0-0.299,0c-1.196,0.332-1.629,1.495-1.43,2.526c0.698,3.49,1.33,6.946,1.928,10.437
		c0.1,0.598,0.199,1.229,0.266,1.828l0.199,1.263l0.332,2.426l0.366,2.459l-0.1-0.565c0.067,0.466,0.133,0.93,0.232,1.928
		l0.232,1.428c0.033,0.433,0.498,0.964,0.897,1.196c0.266,0.133,0.531,0.232,1.129,0.232c0.133,0,0.299,0,0.466,0
		c0.531-0.166,0.93-0.499,1.23-0.964c0.266-0.531,0.266-0.997,0.166-1.595l-0.1-0.93
		C220.091,373.474,220.024,373.043,219.892,372.61z"/>
	<path style="fill:#161616;" d="M285.566,89.344c0.765,1.861,1.463,3.755,2.093,5.716c0.631,1.894,1.263,3.855,1.729,5.783
		c0.299,1.33,0.598,2.659,0.93,3.989c0.199,0.93,0.498,1.894,0.631,2.825c0.433,2.592,0.83,5.185,1.23,7.777
		c0.134,1.129,0.299,2.293,0.433,3.423c0.1,0.964,0.299,1.761,1.031,2.492c0.411,0.433,0.949,0.684,1.522,0.844
		c-0.011,0.084-0.092,0.131-0.092,0.219c0,1.097,0.964,2.193,2.127,2.127c1.662-0.1,3.324-0.232,5.018-0.465
		c1.33-0.167,2.659-0.466,3.989-0.698c0.712-0.147,1.113-0.746,1.33-1.422c1.028-0.414,2.055-0.836,3.09-1.236
		c2.825-1.097,5.716-2.061,8.474-3.389c1.762-0.83,3.224-2.26,4.487-3.722c1.163-1.33,2.36-2.791,3.025-4.453
		c0.366-0.964,0.698-1.894,0.732-2.925c0.033-0.964,0-1.828-0.134-2.758c-0.199-1.097-0.433-2.16-0.732-3.224
		c-1.064-3.955-2.459-7.844-3.822-11.7c-1.428-4.021-2.958-7.976-4.453-11.965c-0.765-2.028-1.595-4.054-2.394-6.082
		c-0.897-2.193-1.928-4.255-3.124-6.281c-0.631-1.096-1.363-1.961-2.16-2.892c-0.732-0.864-1.595-1.363-2.592-1.861
		c-0.498-0.266-0.997-0.399-1.495-0.399c-0.232,0-0.499,0.033-0.765,0.1c-0.399,0.1-0.765,0.167-1.129,0.266
		c-0.631,0.199-1.196,0.531-1.662,1.031c-1.097,0.83-2.028,1.861-3.025,2.791c-1.428,1.396-2.925,2.791-4.42,4.154
		c-3.09,2.791-6.381,5.384-9.538,8.077c-0.997,0.83-1.861,1.761-2.725,2.726c-0.498,0.598-0.997,1.33-1.23,2.127
		c-0.199,0.698-0.232,1.695-0.033,2.426c0.199,0.665,0.598,1.263,0.997,1.828C283.97,86.12,284.801,87.649,285.566,89.344z
		 M292.977,77.213c1.662-1.33,3.291-2.693,4.919-4.054c1.129-0.93,2.16-1.894,3.822-3.423c0.798-0.732,1.595-1.495,2.36-2.26
		l0.897-0.864l1.33-1.296c0.067,0,0.598,0.565,0.631,0.598c1.163,1.662,2.227,3.556,3.389,6.082
		c2.193,5.484,4.255,11.033,6.149,16.618c0.897,2.592,1.729,5.218,2.426,7.91c0.732,2.693,1.462,5.451,1.861,8.209
		c0.033,0.598,0.033,1.196-0.199,2.36c-0.565,1.031-1.196,1.994-1.894,2.958c-0.531,0.631-1.064,1.196-1.729,1.729
		c-0.83,0.498-1.629,0.93-2.492,1.33c-1.263,0.499-2.526,0.964-3.789,1.43l-2.492,0.93c-1.961,0.765-3.922,1.662-5.85,2.559
		c-0.637,0.319-1.136,1.048-1.352,1.956c-0.007,0-0.013,0.001-0.02,0.003c-0.008,0.033-0.016,0.068-0.023,0.103h-0.013h-1.041
		c-0.158,0.013-0.312,0.023-0.47,0.035c0.005-0.013,0.017-0.021,0.023-0.035h-0.093c0.166-0.433,0.266-0.864,0.199-1.229
		c-0.366-3.058-0.798-6.082-1.296-9.14l-0.598-3.922c-0.1-0.732-0.299-1.462-0.631-2.791c-1.121-4.676-2.201-8.597-3.735-12.358
		c-0.776-1.856-1.55-3.688-2.48-5.456c-0.698-1.33-1.629-2.492-2.559-3.755C289.687,79.905,291.315,78.542,292.977,77.213z"/>
	<path style="fill:#161616;" d="M293.109,90.209c0.059,0.14,0.096,0.296,0.154,0.438c0.056,0.133,0.123,0.259,0.179,0.394
		L293.109,90.209z"/>
	<path style="fill:#161616;" d="M429.737,180.17c0.067-0.531,0.134-1.031,0.199-1.562c-0.033-0.498-0.067-0.997-0.134-1.495
		c-0.266-2.26-0.598-4.487-0.964-6.714c-0.366-2.293-0.765-4.587-1.163-6.912c-0.433-2.526-0.798-5.018-1.129-7.577
		c-0.067-0.964-0.167-1.928-0.266-2.892c-0.067-1.097-0.1-2.193-0.1-3.324c-0.033-2.758,0.134-5.517,0.232-8.275
		c0.033-1.562-0.199-3.59-1.729-4.453c-0.565-0.332-1.163-0.466-1.828-0.565c-0.232-0.033-0.498-0.033-0.765-0.033
		c-0.732,0-1.462,0.067-2.193,0.232c-2.127,0.466-4.154,1.163-6.216,1.928c-2.16,0.797-4.288,1.629-6.414,2.492
		c-2.459,1.031-4.886,2.16-7.345,3.291c-4.786,2.227-9.339,5.118-13.427,8.476c-5.417,4.353-10.17,9.505-14.922,14.524
		c-1.129,1.196-1.196,3.058,0,4.221c0.033,0,0.033,0,0.033,0.033c0,0.531,0.167,1.064,0.399,1.629
		c1.163,2.459,2.36,4.919,3.523,7.378c1.263,2.693,2.559,5.351,4.154,7.876c1.662,2.659,3.389,5.284,5.051,7.943
		c0.732,1.196,1.43,2.392,2.193,3.556c0.299,0.433,0.598,0.83,0.897,1.23c0.366,0.399,0.765,0.797,1.229,1.097
		c0.399,0.199,0.765,0.399,1.163,0.565c0.531,0.133,1.296,0.199,1.828,0.033c1.529-0.433,2.791-1.363,4.054-2.26
		c1.196-0.864,2.426-1.662,3.656-2.492c2.327-1.562,4.719-3.057,7.113-4.52c1.196-0.765,2.394-1.529,3.623-2.26
		c1.396-0.83,2.791-1.729,4.255-2.492c1.463-0.764,2.892-1.529,4.353-2.293c1.263-0.665,2.626-1.196,3.956-1.828
		c-0.012,0.007-0.023,0.011-0.033,0.015c0.023-0.011,0.045-0.021,0.067-0.032c-0.008,0.009-0.017,0.017-0.033,0.017
		c0.033,0,0.1-0.033,0.167-0.067c-0.033,0-0.067,0.033-0.1,0.033c0.097-0.049,0.196-0.08,0.28-0.119
		c-0.032,0.017-0.065,0.036-0.101,0.053c1.037-0.423,2.073-0.876,3.077-1.296c0.631-0.266,1.462-0.631,1.961-1.163
		C428.84,181.565,429.505,180.967,429.737,180.17z M420.997,180.302c-0.631,0.266-1.229,0.565-1.828,0.864
		c-1.462,0.698-2.925,1.428-4.387,2.227c-2.693,1.495-5.351,3.057-7.943,4.752c-2.526,1.629-5.018,3.324-7.577,5.018l-1.961,1.363
		l-1.994,1.33c-0.942,0.666-1.888,1.33-2.946,1.88c-0.18,0.108-0.36,0.212-0.543,0.314c0,0,0-0.031-0.031-0.032
		c-0.023,0.011-0.045,0.023-0.068,0.032c-0.732-1.163-1.363-2.36-2.028-3.556c-0.565-1.064-1.129-2.093-1.729-3.124l-1.43-2.426
		c-0.864-1.428-1.695-2.825-2.459-4.288c-1.296-2.392-2.459-4.819-3.556-7.312c-1.064-2.426-2.127-4.819-3.357-7.378
		c4.255-4.487,8.409-8.84,13.261-12.829c1.961-1.43,3.889-2.791,5.883-4.088c1.662-1.097,3.456-1.994,5.218-2.925l0.897-0.433
		c1.064-0.531,2.16-1.031,3.257-1.529l1.595-0.698c2.36-0.997,4.719-1.961,7.677-3.157c1.961-0.765,3.922-1.562,5.949-2.093
		c0.013,0,0.021,0.031,0.028,0.068c0.001,0,0.004-0.001,0.005-0.001c0,0.011,0,0.021,0,0.032c0.008,0.051,0.017,0.1,0.033,0.1
		c0.033,0.033,0.033,0.266,0.033,0.299c0,0.498-0.033,0.997-0.067,1.495c0,0.864-0.033,1.695-0.067,2.659
		c-0.067,1.263-0.033,2.559,0,3.822l0.033,0.964c0,1.064,0.1,2.127,0.199,3.191l0.167,1.396c0.067,1.163,0.266,2.327,0.433,3.49
		l0.232,1.396c0.232,1.762,0.531,3.523,0.864,5.285l0.565,3.191c0.366,2.127,0.665,4.288,0.997,6.414l0.199,1.428
		c0.1,0.299,0.167,0.665,0.1,1.129C423.59,179.24,422.459,179.704,420.997,180.302z"/>
	<path style="fill:#161616;" d="M374.434,32.039c0.366,0.433,0.732,0.864,1.097,1.296c1.396,1.961,2.592,4.054,3.623,6.216
		c1.595,4.353,2.36,8.84,2.958,13.427c0.199,1.861,0.299,3.688,0.366,5.583c0.067,2.227-0.033,4.453-0.166,6.647
		c-0.166,3.955-0.531,7.843-0.93,11.765c-0.1,0.864,0.399,1.794,0.964,2.394c0.631,0.631,1.495,0.964,2.394,0.964
		c0.897,0,1.762-0.332,2.394-0.964c0.354-0.372,0.585-0.764,0.74-1.188l-0.075-0.009c0.1-0.366,0.199-0.732,0.232-1.196l0.266-2.725
		c0.134-1.363,0.266-2.693,0.366-4.022c0.232-3.324,0.399-6.68,0.466-10.004c0.033-2.758-0.166-5.65-0.598-8.873
		c-0.399-2.958-0.897-5.883-1.562-8.741c-0.964-4.088-2.791-7.91-5.317-11.134c-0.565-0.698-1.097-1.33-1.729-1.994l-0.83-0.797
		c0-0.033,0.266-0.299,0.266-0.332c0,0,0.299-0.299,0.332-0.299c2.492-1.761,5.118-3.257,7.811-4.719
		c2.028-1.097,4.088-2.093,6.182-3.025c0.498-0.199,0.997-0.366,1.529-0.531c0.033,0,0.499,0.067,0.499,0.067
		c0.232,0.167,0.498,0.332,0.732,0.466l0.765,0.631c0.631,0.631,1.196,1.263,1.33,1.529c0.732,1.064,1.396,2.127,2.028,3.257
		c0.565,1.064,1.031,2.16,1.595,3.49c2.559,6.814,4.387,13.992,5.949,20.739c1.562,6.68,2.925,12.695,3.722,18.246
		c0,0.021,0.013,0.36,0.015,0.609c0.005,0.041,0.012,0.081,0.019,0.123c-0.007-0.028-0.012-0.056-0.019-0.084
		c0,0.124-0.004,0.216-0.015,0.216c-1.761,1.064-3.59,1.961-5.451,2.825l-1.629,0.797c-1.828,0.897-3.688,1.761-5.551,2.626
		c-1.662,0.698-3.357,1.396-5.051,1.994c-1.396,0.499-2.892,0.732-4.32,0.93l-0.93,0.167v-0.1c-1.163,0.199-1.961,1.495-1.961,2.592
		c0,0.698,0.266,1.363,0.765,1.861c0.466,0.465,1.229,0.864,1.894,0.797c2.127-0.266,4.288-0.565,6.314-1.263
		c1.928-0.631,3.822-1.363,5.683-2.16c3.922-1.662,7.744-3.49,11.599-5.284c0.598-0.299,1.163-0.565,1.729-0.897
		c0.732-0.366,1.595-0.997,2.028-1.729c0.332-0.531,0.565-1.031,0.732-1.662c0.134-0.565,0.167-1.229,0.199-1.828
		c0-0.665-0.167-1.396-0.266-2.061c-0.033-0.399-0.133-0.797-0.199-1.196c-0.232-1.064-0.498-2.127-0.732-3.191
		c-1.097-4.62-2.293-9.173-3.49-13.726c-1.064-4.054-2.16-8.143-3.456-12.131c-1.064-3.157-2.028-6.348-3.389-9.406
		c-0.565-1.229-1.163-2.459-1.794-3.656c-0.598-1.131-1.33-2.16-2.061-3.191c-0.631-0.864-1.363-1.629-2.095-2.394
		c-0.498-0.466-0.997-0.897-1.529-1.296c-0.565-0.366-1.129-0.698-1.761-0.93c-0.598-0.067-1.33-0.266-2.028-0.266
		c-0.199,0-0.399,0.033-0.598,0.067c-0.93,0.232-1.828,0.531-2.726,0.897c-1.097,0.433-2.16,0.897-3.257,1.396
		c-1.928,0.864-3.855,1.861-5.716,2.925c-1.097,0.598-2.16,1.196-3.224,1.794c-1.994,1.163-3.855,2.526-5.484,4.154
		c-0.433,0.433-0.83,1.129-0.997,1.729c-0.199,0.732-0.033,1.33,0.166,2.028C373.47,31.008,373.969,31.508,374.434,32.039z"/>
	<path style="fill:#161616;" d="M504.219,109.977c-0.466-2.26-0.964-4.52-1.462-6.747c-0.433-2.093-0.698-4.221-0.997-6.314
		c-0.166-1.629-0.332-3.291-0.531-4.919c-0.134-1.263-0.266-2.526-0.732-3.688c-0.332-0.93-1.196-1.894-2.16-2.16
		c-0.366-0.1-0.797-0.133-1.196-0.133c-0.498,0-0.997,0.033-1.495,0.1c-0.864,0.1-1.762,0.232-2.626,0.366
		c-1.562,0.232-3.09,0.631-4.62,1.031c-1.729,0.465-3.456,0.93-5.185,1.428c-3.224,0.964-6.348,2.127-9.44,3.49
		c-1.894,0.83-3.688,1.794-5.451,2.858c-1.961,1.163-3.755,2.592-5.551,4.021c-2.992,2.426-5.584,5.351-8.11,8.309
		c-0.565-0.332-1.229-0.399-1.894-0.199c-0.631,0.167-1.229,0.631-1.562,1.196c-0.399,0.665-0.366,1.296-0.266,2.028
		c0.166,1.263,0.433,2.492,0.732,3.688c0.332,1.229,0.864,2.394,1.363,3.556c0.631,1.462,1.296,2.958,2.095,4.353
		c0.466,0.798,0.93,1.595,1.363,2.394c0.433,0.765,0.964,1.462,1.462,2.16c0.964,1.462,1.994,2.892,2.992,4.353
		c0.93,1.363,1.762,2.791,2.592,4.188c0.631,1.096,1.263,2.193,1.961,3.291c0.531,0.797,1.428,1.529,2.459,1.529
		c0.964,0,1.861-0.399,2.592-1.064c0.732-0.665,1.462-1.33,2.193-1.994c1.252-1.059,2.564-2.056,3.85-3.081
		c-0.068,0.045-0.136,0.084-0.194,0.123c1.695-1.263,3.389-2.492,5.118-3.722c1.828-1.263,3.722-2.394,5.65-3.556
		c1.794-1.129,3.656-2.061,5.551-3.025c0.698-0.366,1.363-0.698,2.061-1.031c1.064-0.433,2.093-0.864,3.124-1.296
		c0.798-0.332,1.595-0.665,2.394-0.964c0.83-0.332,1.662-0.698,2.459-1.096c0.466-0.366,0.93-0.732,1.363-1.097
		c0.332-0.332,0.531-0.698,0.631-1.097c0.1-0.266,0.166-0.498,0.232-0.765c0.1-0.498,0.134-0.997,0.033-1.529
		c0-0.565-0.1-1.163-0.199-1.729C504.651,112.137,504.451,111.039,504.219,109.977z M500.098,115.227
		c-0.146,0.087-0.315,0.174-0.467,0.239l-0.032,0.093l-0.964,0.399c-1.064,0.433-2.093,0.864-3.157,1.296l-1.263,0.531
		c-0.997,0.399-1.994,0.83-2.925,1.296c-1.695,0.864-3.389,1.761-5.085,2.659l-0.964,0.565l-2.26,1.43l-0.864,0.531
		c-2.626,1.629-5.118,3.49-7.544,5.417c-1.9,1.463-3.713,2.985-5.628,4.538c-0.107,0.093-0.215,0.187-0.322,0.282
		c-0.003-0.005-0.005-0.009-0.008-0.015c-0.02,0.016-0.039,0.032-0.059,0.048c-0.698-1.263-1.396-2.526-2.127-3.789l-0.466-0.698
		c-0.765-1.263-1.562-2.559-2.392-3.789l-0.864-1.33c-0.665-0.997-1.363-1.994-1.894-3.057l-0.93-1.695l-0.399-0.765
		c-0.366-0.631-0.631-1.296-1.196-2.592c-0.232-0.598-0.465-1.196-0.897-2.26l-0.598-1.794l4.221-4.819
		c1.861-2.093,4.021-4.121,6.414-6.015c1.562-1.129,3.124-2.16,4.752-3.124c1.495-0.93,3.09-1.662,5.384-2.659
		c3.356-1.363,7.113-2.592,11.499-3.789c2.394-0.698,4.786-1.33,7.245-1.761h0.067c0.033,0,0.067,0.033,0.1,0.1
		c0.133,1.163,0.232,2.293,0.332,3.456c0.134,1.196,0.232,2.394,0.399,3.556c0.266,2.028,0.531,4.054,0.864,6.049
		c0.299,1.762,0.631,3.523,0.997,5.285c0.366,1.761,0.732,3.523,1.031,5.317h-0.1C500.064,114.662,500.064,114.928,500.098,115.227z
		"/>
	<path style="fill:#161616;" d="M485.942,213.013c-0.366-0.631-0.665-1.064-1.263-1.495c-0.399-0.366-0.83-0.631-1.363-0.797
		c-1.097-0.399-2.16-0.732-3.291-0.964c-0.864-0.199-1.695-0.332-2.559-0.466c-2.127-0.399-4.221-0.864-6.314-1.462
		c-2.028-0.631-4.054-1.296-6.082-1.861c-1.662-0.465-3.224-0.897-4.919-1.196c-0.631-0.1-1.263-0.166-1.894-0.166
		c-1.428,0-2.858,0.232-4.288,0.498c-0.83,0.133-1.629,0.864-2.028,1.562c-0.465,0.765-0.598,1.729-0.366,2.626
		c0.067,0.299,0.199,0.598,0.366,0.864c-0.033,0.166-0.033,0.332-0.033,0.498c-0.1,3.257-0.167,6.548-0.531,9.837
		c-0.266,1.396-0.598,2.726-1.097,4.121c-0.133,0.266-0.266,0.565-0.399,0.864c-0.362,0.78-0.856,1.486-1.366,2.173
		c-0.501,0.63-1.043,1.196-1.626,1.749c-0.507,0.443-1.015,0.886-1.55,1.302c0.007-0.003,0.015-0.005,0.021-0.005
		c-1.428,1.064-2.892,2.16-4.387,3.157c-1.629,1.064-3.324,1.961-5.051,2.892c-0.598,0.299-1.296,0.732-1.762,1.196
		c-0.466,0.466-0.631,1.064-0.798,1.662c-0.465,1.562,0.83,2.958,1.894,3.889c1.729,1.562,3.989,2.526,6.082,3.456
		c2.459,1.031,5.018,1.729,7.611,2.36c2.394,0.598,4.886,0.964,7.312,1.23c2.227,0.232,4.487,0.466,6.747,0.665
		c1.994,0.166,3.988,0.299,6.015,0.399c0.466,0.033,0.964,0.033,1.462,0.033c1.031,0,1.894-0.166,2.892-0.433
		c0.232-0.067,0.433-0.166,0.631-0.266c0.531-0.166,0.964-0.433,1.396-0.732c0.997-0.665,1.729-1.629,2.492-2.526
		c2.925-3.59,4.853-7.91,6.281-12.298c1.229-3.822,1.629-7.844,2.028-11.798c0.199-1.861,0.299-3.689,0.299-5.551
		c0.033-1.031,0-2.061-0.1-3.124C486.341,214.276,486.274,213.578,485.942,213.013z M480.79,227.803
		c-0.266,1.629-0.598,3.224-1.031,4.853c-0.466,1.961-1.196,3.855-1.762,5.152c-1.263,2.626-2.592,4.853-3.689,6.314
		c-0.466,0.621-0.964,1.127-1.731,1.733c0.024-0.004,0.049-0.009,0.072-0.016c-0.035,0.012-0.069,0.025-0.104,0.04
		c-0.044,0.035-0.085,0.068-0.132,0.104l-0.93,0.332c-0.168-0.005-0.335-0.012-0.502-0.02c-0.076,0.007-0.152,0.015-0.23,0.02
		c0.059-0.007,0.116-0.015,0.171-0.021c-1.802-0.076-3.579-0.227-5.356-0.376l-3.423-0.232l-2.659-0.199l-2.626-0.199
		c-0.897-0.1-1.794-0.232-2.659-0.332l-1.33-0.166c-4.088-0.732-7.378-1.629-10.37-2.825c-0.461-0.23-0.92-0.461-1.308-0.746
		c-0.478-0.25-0.952-0.506-1.418-0.782c0.198-0.099,0.363-0.166,0.559-0.263c-0.009-0.024-0.02-0.045-0.028-0.069
		c0.665-0.366,1.33-0.698,2.492-1.363c1.729-0.964,3.356-2.16,5.384-3.688l1.595-1.263c0.964-0.765,1.762-1.629,2.592-2.559
		c1.729-1.861,2.726-4.288,3.423-6.182c0.732-1.928,0.93-4.054,1.196-6.814c0.167-2.26,0.199-4.52,0.332-6.914h0.765
		c0.765,0,1.495,0.033,2.26,0.1c2.426,0.433,4.819,1.031,7.211,1.629l2.791,0.698c1.595,0.332,3.257,0.598,4.919,0.798
		c0.83,0.133,1.629,0.232,3.257,0.465c0.93,0.134,1.861,0.366,2.825,0.698c0.133,1.729,0.1,3.49,0.033,5.218
		C481.323,223.216,481.057,225.543,480.79,227.803z"/>
	<path style="fill:#161616;" d="M210.749,152.884c0.299,0.565,0.598,1.396,1.097,1.828c0.433,0.366,0.864,0.698,1.296,1.031
		c0.665,0.332,1.33,0.631,1.994,0.897c1.629,0.498,3.257,0.83,4.919,1.196c2.426,0.531,4.886,0.997,7.345,1.529
		c1.064,0.232,2.093,0.466,3.124,0.665c1.595,0.366,3.191,0.765,4.819,0.864c0.232-0.033,0.433-0.067,0.665-0.067
		c0.465-0.033,0.864-0.166,1.263-0.366c0.897-0.531,1.462-1.33,2.061-2.16c0.166-0.399,0.366-0.798,0.531-1.196
		c0.299-0.598,0.498-1.229,0.631-1.894c0.399-1.296,0.665-2.659,0.964-3.989c0.332-1.462,0.665-2.958,0.997-4.42
		c0.732-3.191,1.695-6.281,2.858-9.306c1.495-3.49,3.191-6.78,4.953-10.071c0.598-1.129,1.296-2.227,1.961-3.291
		c0.864-1.363,2.16-2.559,2.16-4.255c0-0.83-0.466-1.462-0.897-2.16c-0.299-0.466-0.665-0.864-1.064-1.196
		c-0.433-0.332-0.864-0.665-1.296-0.997c-2.426-1.529-5.018-2.693-7.644-3.789c-2.626-1.097-5.417-1.828-8.175-2.492
		c-0.266-0.067-0.531-0.1-0.798-0.1c-1.396,0-2.693,0.864-3.09,2.293c-0.067,0.299-0.1,0.565-0.1,0.864
		c-0.698-0.765-1.861-0.964-2.758-0.433c-0.83,0.498-1.629,1.031-2.392,1.629c-0.83,0.598-1.562,1.263-2.26,1.961
		c-0.665,0.732-1.296,1.495-1.894,2.293c-1.961,2.459-3.556,5.185-5.051,7.91c-2.459,4.487-4.288,9.239-5.917,14.025
		c-0.232,0.698-0.465,1.396-0.665,2.093c-0.266,0.798-0.433,1.595-0.598,2.394c-0.067,0.565-0.166,1.129-0.232,1.662
		c-0.033,1.196-0.1,2.394,0.133,3.59C209.919,150.624,210.218,151.786,210.749,152.884z M215.221,151.252
		c0.029,0.012,0.057,0.024,0.081,0.036c0.033,0,0.033,0.033,0.033,0.033C215.293,151.292,215.257,151.271,215.221,151.252z
		 M214.372,145.073c0.332-1.662,0.864-3.291,1.363-4.886c0.631-2.028,1.296-3.955,2.193-6.216c0.864-2.061,1.828-4.088,2.825-6.049
		c1.23-2.392,2.758-4.886,4.32-7.113c0.598-0.798,1.23-1.562,1.894-2.293c0.698-0.732,1.43-1.363,1.794-1.595
		c0.598-0.498,1.263-0.93,1.994-1.296c0.565-0.366,0.964-0.964,0.997-1.595c0.033-0.033,0.033-0.067,0.067-0.067
		c0.033-0.033,0.033-0.033,0.033-0.033c0.033,0,0.067,0.033,0.067,0.067c0.433,0.598,1.064,1.064,1.762,1.263l1.894,0.466
		c1.129,0.299,2.293,0.598,4.021,1.064c0.565,0.133,1.163,0.299,1.695,0.498c1.729,0.531,3.389,1.129,4.453,1.595
		c1.097,0.466,2.127,0.997,3.157,1.695l-0.797,1.363c-0.631,1.031-1.263,2.028-1.861,3.09c-0.732,1.296-1.396,2.592-2.061,3.922
		l-1.031,1.961c-2.327,4.587-4.088,9.505-5.317,14.623l-0.531,2.36c-0.565,2.394-1.097,4.786-1.861,7.146
		c0,0-0.466,0.765-0.466,0.798c-0.83-0.166-1.629-0.366-2.426-0.565l-1.729-0.366l-2.492-0.531l-2.526-0.531l-2.825-0.565
		l-1.562-0.299l-0.964-0.199l-1.894-0.399l0.033-0.067l-1.097-0.166c-0.4-0.096-0.79-0.214-1.244-0.459
		c-0.251-0.093-0.501-0.194-0.75-0.306c0,0,0,0,0-0.033c0.067,0.033,0.1,0.067,0.166,0.1c-0.067-0.067-0.133-0.1-0.232-0.166
		c-0.036-0.072-0.083-0.155-0.133-0.236c-0.065-0.051-0.131-0.105-0.199-0.162c-0.332-0.83-0.565-1.662-0.798-2.592
		C214.239,147.233,214.272,146.204,214.372,145.073z"/>
	<path style="fill:#161616;" d="M295.973,7.313c1.259,3.423,2.265,6.919,2.802,10.532c0.206,1.988,0.392,3.955,0.514,5.919
		c0.1,1.229,0.199,2.459,0.199,3.688c0.033,1.296,0.067,2.592,0,3.889c-0.067,1.229-0.166,2.392-0.299,3.59
		c-0.232,1.196-0.499,2.36-0.897,3.523c-0.1,0.366-0.266,0.765-0.399,1.131c-0.033,0.232-0.033,0.433-0.067,0.665
		c0,0.498,0.067,0.964,0.133,1.462c0.1,0.433,0.332,0.765,0.631,1.064c0.531,0.565,1.031,1.163,1.828,1.363
		c0.565,0.232,1.129,0.366,1.729,0.399c0.765,0.1,1.562,0.133,2.327,0.133c0.798-0.033,1.562-0.133,2.36-0.232
		c1.097-0.133,2.16-0.332,3.257-0.565c2.427-0.466,4.819-1.129,7.213-1.695c3.025-0.765,6.015-1.595,8.974-2.526
		c1.196-0.366,2.392-0.83,3.356-1.662c0.93-0.797,1.794-1.828,2.193-3.024c0.332-0.897,0.565-1.828,0.698-2.791
		c0.232-1.229,0.266-2.492,0.332-3.755c0.067-1.495-0.1-2.992-0.299-4.453c-0.399-3.456-0.864-6.879-1.296-10.303
		c-0.433-3.257-0.732-6.548-1.462-9.739c-0.199-0.466-0.399-0.93-0.631-1.363c-0.299-0.466-0.698-0.83-1.163-1.129
		c-1.163-0.93-2.825-1.229-4.255-1.363C322.687,0,321.656,0,320.592,0c-1.031,0-2.093,0-3.124,0.033
		c-1.562,0.033-3.124,0.199-4.686,0.399c-0.877,0.115-1.754,0.291-2.63,0.431c-0.376-0.304-0.833-0.498-1.324-0.498
		c-0.166,0-0.366,0.033-0.531,0.067c-3.076,0.808-6.123,1.661-9.173,2.502c-0.084-0.065-0.131-0.152-0.232-0.208
		c-0.565-0.332-1.263-0.433-1.861-0.266c-0.631,0.199-1.129,0.598-1.462,1.129c-0.22,0.368-0.307,0.881-0.276,1.362
		c-0.156,0.411-0.288,0.846-0.156,1.298C295.26,6.71,295.603,7.041,295.973,7.313z M314.742,5.252
		c2.492-0.299,4.985-0.531,7.445-0.531l0.725,0.108c0.056,0.001,0.112,0.003,0.168,0.004c-0.041-0.027-0.063-0.053-0.063-0.079
		c0.033-0.067,0.067-0.1,0.1-0.1c0.622,0.077,1.185,0.179,1.829,0.439c0.099,0.029,0.199,0.059,0.298,0.092
		c0.067,0.033,0.1,0.067,0.134,0.1c0.001,0.001,0.001,0.003,0.003,0.003c0.044,0.021,0.085,0.04,0.131,0.063
		c0.433,1.462,0.665,2.958,0.964,4.919c0.266,1.894,0.498,3.789,0.732,5.716l0.366,2.726c0.166,1.296,0.332,2.626,0.465,3.922
		l0.1,0.93l0.134,0.964c0.199,1.828,0.166,3.656,0.033,5.417l-0.133,0.997c-0.167,0.83-0.366,1.562-0.765,2.559
		c0,0-0.039,0.048-0.095,0.117c-0.012,0.028-0.024,0.055-0.037,0.081c0.011-0.021,0.017-0.043,0.024-0.063
		c-0.053,0.067-0.121,0.15-0.188,0.231c0.065-0.048,0.132-0.095,0.199-0.133c-0.083,0.067-0.167,0.133-0.251,0.196
		c-0.107,0.128-0.202,0.236-0.215,0.236l-0.732,0.399c-1.196,0.466-2.459,0.765-3.689,1.097l-0.028-0.085
		c-0.039,0.009-0.077,0.02-0.117,0.031l-0.818,0.322l-3.49,0.93c-3.822,1.064-7.777,2.16-11.765,2.825
		c-0.565,0.067-1.129,0.133-2.526,0.166c-0.033,0-0.466,0-0.466-0.033c-0.021-0.021-0.202-0.044-0.312-0.065
		c-0.007,0-0.013,0-0.02-0.001c0-0.001,0-0.001,0.001-0.003c-0.047-0.009-0.077-0.02-0.067-0.029
		c0.399-1.463,0.83-2.925,1.097-4.786c0.1-0.93,0.232-1.828,0.266-2.791c0.067-1.33,0.067-2.626,0.067-3.955
		c0-1.729-0.134-3.456-0.232-5.185l-0.1-1.363c-0.166-2.626-0.531-5.317-1.031-7.91c-0.199-1.163-0.531-2.293-0.864-3.456
		l-0.232-0.897c-0.266-0.864-0.565-1.695-0.798-2.626l0.004-0.001l0,0l4.349-1.129c0.005,0.007,0.011,0.013,0.016,0.021
		c0.003,0,0.005-0.001,0.008-0.003c0.435,0.585,1.156,0.945,2.402,0.945c0.1,0,0.232,0,0.332,0
		C310.289,6.049,312.516,5.616,314.742,5.252z"/>
	<path style="fill:#161616;" d="M505.451,32.278c0,0,0,0,0,0.033c-0.366-3.224-0.299-6.381-0.134-9.638
		c0.064-0.954,0.158-1.91,0.254-2.894c-0.005,0.013-0.012,0.027-0.021,0.036c0.015-0.031,0.023-0.068,0.028-0.105
		c0-0.009,0.001-0.019,0.003-0.028c0.003-0.035,0.003-0.069,0.003-0.099c0.033-0.1,0.033-0.232,0.033-0.332c0,0.067,0,0.133,0,0.199
		c0.332-2.127,0.665-4.255,1.031-6.381c0.1-0.466,0.167-0.93,0.232-1.363c0.199-1.031,0.332-2.028,0.332-3.09
		c0-0.366-0.1-0.765-0.299-1.097c-0.199-0.498-0.433-0.93-0.798-1.33c-0.332-0.266-0.665-0.565-1.031-0.83
		c-0.466-0.266-0.964-0.531-1.495-0.698c-1.296-0.565-2.726-0.798-4.188-0.798c-0.765,0-1.562,0.067-2.327,0.166
		c-2.427,0.332-4.819,0.897-7.245,1.43c-1.064,0.232-2.16,0.466-3.257,0.698c-0.631,0.133-1.263,0.299-1.894,0.433
		c-0.732,0.1-1.43,0.332-2.127,0.631c-0.83,0.266-1.595,0.698-2.293,1.263c-0.797,0.546-1.259,1.41-1.25,2.312
		c-0.155,0.097-0.327,0.183-0.479,0.28c-0.244,0.154-0.47,0.359-0.712,0.527c-0.466-0.152-0.952-0.318-1.416-0.195
		c-0.698,0.199-1.097,0.631-1.495,1.163c-0.741,0.952-1.399,1.96-2.064,2.964c-0.498,0.498-0.995,0.995-1.492,1.523
		c-0.562,0.603-0.653,1.383-0.514,2.141c-0.166,0.372-0.414,0.704-0.55,1.083c-0.366,0.964-0.665,1.928-0.897,2.925
		c-0.266,1.031-0.466,2.061-0.598,3.09c-0.399,2.193-0.531,4.42-0.531,6.647c0,1.695,0.166,3.389,0.399,5.051
		c0.132,0.964,0.299,1.928,0.498,2.892c0.232,0.964,0.498,1.928,0.798,2.858c0.83,2.693,1.994,5.218,3.224,7.744
		c0.598,1.196,1.296,2.36,2.093,3.456c1.129,1.595,2.726,3.556,4.919,3.556c1.163,0,2.26-0.93,3.191-1.562
		c0.765-0.499,1.529-0.997,2.327-1.463c0.531-0.332,1.064-0.665,1.595-0.964c0.878-0.439,1.758-0.88,2.637-1.347
		c0.051-0.028,0.103-0.055,0.155-0.083c0.499-0.199,1.031-0.399,1.529-0.631c-0.008,0.007-0.015,0.013-0.021,0.02
		c3.556-1.507,7.272-2.693,10.923-3.875c0.1-0.033,0.199-0.067,0.266-0.1c0.631-0.167,1.263-0.399,1.861-0.665
		c0.531-0.332,1.462-0.765,1.794-1.428c0.1-0.199,0.199-0.433,0.332-0.631c0.199-0.399,0.332-0.83,0.366-1.263
		c0.199-0.864,0.1-1.794,0-2.693c-0.133-1.529-0.498-3.058-0.798-4.587C506.017,35.602,505.718,33.94,505.451,32.278z
		 M503.036,43.219c-0.001,0.109-0.004,0.218-0.011,0.326c-0.033,0.1-0.033,0.166-0.067,0.266c-0.041,0.021-0.084,0.043-0.127,0.064
		c-0.013,0.033-0.027,0.068-0.04,0.103c-3.789,1.131-7.51,2.327-11.234,3.623c-0.565,0.199-1.064,0.433-1.595,0.631l-0.997,0.399
		c-0.93,0.399-1.794,0.797-2.693,1.229c-1.031,0.498-1.961,0.997-3.623,1.994l-0.033-0.067l-1.129,0.765l-0.626,0.304
		c-0.135,0.1-0.27,0.186-0.405,0.294c-0.019-0.017-0.036-0.045-0.053-0.072l-0.08,0.039l-0.732-1.064l-0.498-0.698
		c-0.332-0.466-0.631-0.997-1.064-1.828c-0.232-0.366-0.433-0.797-0.997-1.928c-0.366-0.698-0.698-1.43-1.229-2.693
		c-0.499-1.296-0.93-2.592-1.363-3.922c-0.466-1.33-0.698-2.726-0.864-3.656c-0.167-1.463-0.266-2.925-0.332-4.387
		c-0.1-1.861,0.134-3.755,0.466-6.049c0.134-0.765,0.266-1.562,0.466-2.36c0.232-0.864,0.499-1.761,0.798-2.626
		c0.499-1.129,1.064-2.193,1.729-3.257l0.184-0.167l0,0l0.513-0.465l1.595-1.163l2.028-1.428c1.031-0.732,2.127-1.296,3.556-1.928
		c0.433-0.167,0.897-0.299,1.33-0.332c0.537-0.085,1.004-0.437,1.455-0.987c0.15-0.25,0.065-0.543,0.135-0.824
		c0.068-0.017,0.136-0.033,0.204-0.051c0.108-0.027,0.218-0.053,0.327-0.081c0.024-0.04,0.048-0.077,0.072-0.119l1.994-0.498
		l1.33-0.366c2.227-0.531,4.453-1.096,6.68-1.562c0.366-0.033,0.732-0.067,1.097-0.133c0.598,0,1.163,0,1.729,0.033
		c0.413,0.052,0.808,0.144,1.46,0.463c0.033,0.012,0.067,0.023,0.101,0.035c0.134,0.067,0.266,0.133,0.366,0.199
		c0.005,0.004,0.007,0.009,0.011,0.013c0.051,0.028,0.101,0.056,0.155,0.087c0,0.498-0.067,0.93-0.1,0.93c0,0,0,0,0-0.033
		l-0.266,1.662c-0.531,2.892-1.031,5.783-1.296,8.675c-0.466,4.786-0.466,8.641,0,12.231c0.199,1.828,0.565,3.623,0.93,5.417
		c0.266,1.229,0.498,2.492,0.765,4.054C503.1,42.591,503.116,42.852,503.036,43.219z"/>
	<path style="fill:#161616;" d="M505.584,19.649c0.033-0.067,0.033-0.133,0.033-0.199c0,0.033,0,0.067-0.033,0.133
		C505.584,19.616,505.584,19.616,505.584,19.649z"/>
	<path style="fill:#161616;" d="M467.461,289.349c-0.798-0.299-1.729-0.466-2.559-0.698c-3.855-0.997-7.777-1.662-11.666-2.526
		c-3.889-0.864-7.777-2.127-11.765-2.193c-1.163,0-2.293,0.166-3.389,0.366c-1.529,0.299-2.592,1.928-2.592,3.423
		c0,0.864,0.332,1.662,0.864,2.293c-0.433,0.465-0.698,1.064-0.732,1.729c-0.415,5.238-0.85,10.506-1.502,15.747
		c-0.565,3.813-1.359,7.493-2.32,11.206c-0.519,1.945-1.109,3.886-1.816,5.77c-0.451,0.993-0.929,1.944-1.509,2.871
		c-0.399,0.631-0.665,1.097-0.732,1.828c-0.033,0.598,0,1.129,0.299,1.695c0.299,0.466,0.83,0.964,1.33,1.263
		c1.229,0.732,2.791,0.897,4.188,1.229c1.196,0.266,2.36,0.565,3.556,0.83c2.36,0.531,4.719,1.097,7.079,1.629
		c0.964,0.199,1.894,0.399,2.858,0.598c0.598,0.133,1.229,0.266,1.861,0.366c1.396,0.299,2.825,0.366,4.255,0.399
		c1.462,0,2.925-0.199,4.387-0.332c1.064-0.067,2.127-0.266,3.157-0.433c0.997-0.199,1.928-0.466,2.858-0.83
		c0.665-0.232,1.33-0.565,1.794-1.064c0.433-0.498,0.798-1.031,1.163-1.562c0.299-0.498,0.531-0.997,0.698-1.495
		c1.529-3.755,1.994-7.744,2.459-11.732c0.299-2.394,0.466-4.786,0.631-7.146c0.332-4.52,0.433-9.074,0.598-13.593
		c0.067-1.828,0.199-3.656,0.1-5.517c-0.033-1.23-0.631-2.293-1.529-3.09C468.889,289.847,468.191,289.648,467.461,289.349z
		 M465.964,300.449c-0.1,2.392-0.199,4.786-0.366,7.378c-0.134,2.394-0.266,4.819-0.433,7.211c-0.199,2.36-0.465,4.719-0.732,6.847
		c-0.433,2.492-0.93,4.886-1.861,7.611c-0.199,0.499-0.399,0.864-0.698,1.196c-1.462,0.433-2.992,0.698-4.487,0.93l-0.864,0.067
		l-0.897,0.1c-1.064,0.1-2.093,0.199-3.157,0.199c-0.83,0-1.662-0.067-2.526-0.167c-2.693-0.498-5.384-0.997-8.043-1.562
		l-4.288-0.897l-1.462-0.332c-0.874-0.156-1.719-0.343-2.617-0.641c-0.036-0.008-0.073-0.016-0.108-0.024
		c0.001-0.003,0.004-0.007,0.005-0.009c-0.024-0.008-0.048-0.016-0.072-0.024c0.332-0.631,0.631-1.263,0.897-1.928
		c0.433-0.997,0.798-2.061,1.131-3.09c0.433-1.43,0.83-2.892,1.229-4.353l0.299-1.064c0.798-3.025,1.462-6.314,1.894-9.772
		c0.698-5.417,1.129-10.835,1.562-16.385v-0.466c0-0.033,0.033-0.033,0.033-0.067c0.033,0,0.033-0.033,0.067-0.033
		c1.363,0.067,2.693,0.266,4.853,0.565l3.257,0.498l4.353,0.665c1.828,0.266,3.656,0.498,5.517,0.698l2.758,0.299l0.964,0.166
		c1.296,0.166,2.559,0.332,3.922,0.698C466.164,296.66,466.064,298.555,465.964,300.449z"/>
	<path style="fill:#161616;" d="M304.041,205.628c-0.332,0-0.665,0.1-0.997,0.266c-0.399,0.266-0.864,0.732-0.93,1.23
		c-1.263,7.844-2.492,15.654-3.722,23.498c-0.1,0.498-0.134,1.031,0.199,1.595c0.266,0.433,0.732,0.798,1.229,0.93l0.525,0.154
		c0.013,0,0.027,0.001,0.04,0v-0.088c0.332,0,0.698-0.1,0.997-0.266c0.399-0.266,0.864-0.732,0.897-1.196l1.894-11.765l1.861-11.765
		c0.1-0.466,0.134-1.031-0.166-1.595C305.57,206.161,305.105,205.827,304.041,205.628z"/>
	<path style="fill:#161616;" d="M311.851,216.496c-0.565,0-1.064,0.199-1.428,0.565c-0.466,0.466-0.565,0.93-0.598,1.463
		l-0.598,4.42c-0.631,4.886-1.296,9.804-1.861,14.657c-0.067,0.498,0.232,1.129,0.598,1.462c0.366,0.366,0.864,0.565,1.428,0.565
		c0.565,0,1.064-0.199,1.428-0.565c0.433-0.433,0.565-0.897,0.598-1.462c0.598-4.886,1.263-9.772,1.894-14.657l0.565-4.42
		c0.067-0.499-0.232-1.129-0.598-1.463C312.915,216.696,312.417,216.496,311.851,216.496z"/>
	<path style="fill:#161616;" d="M317.801,229.458c-0.565,0-1.097,0.199-1.43,0.598c-0.399,0.366-0.565,0.83-0.598,1.43l-0.399,4.121
		c-0.366,4.255-0.765,8.509-1.064,12.762c-0.067,0.465,0.132,0.964,0.465,1.33c0.399,0.433,0.997,0.698,1.562,0.698
		c1.263,0,1.961-1.064,2.028-2.028c0.332-4.288,0.732-8.508,1.097-12.762l0.366-4.121c0.067-0.466-0.134-0.93-0.465-1.296
		C318.93,229.724,318.332,229.458,317.801,229.458z"/>
	<path style="fill:#161616;" d="M330.364,246.807c-0.299-0.864-0.765-1.595-1.363-2.492c-0.332-0.433-0.698-0.732-1.196-1.064
		c-0.166-0.133-0.399-0.199-0.93-0.199c-0.166,0-0.366,0-0.598,0c-0.498,0.134-0.964,0.498-1.229,0.93
		c-0.266,0.465-0.366,1.031-0.232,1.595c0.166,0.498,0.433,0.864,1.031,1.296c0.232,0.366,0.465,0.765,0.631,1.163l-0.053,0.027
		c0.003,0.004,0.004,0.008,0.005,0.012c-0.005-0.003-0.011-0.005-0.019-0.005l0.039,0.057c-0.003-0.008-0.005-0.016-0.005-0.024
		c0.004,0.011,0.007,0.023,0.011,0.033l0.155,0.232c0.166,0.465,0.299,0.964,0.399,1.495c0.232,2.726,0.232,5.185-0.033,7.478
		c-0.266,2.26-0.531,4.52-0.83,6.78c-0.067,0.499,0.232,1.131,0.598,1.463c0.399,0.366,0.897,0.565,1.43,0.565
		c0.531,0,1.064-0.199,1.462-0.565c0.433-0.466,0.531-0.93,0.565-1.463l0.232-1.695c0.399-3.025,0.797-6.149,0.797-9.273
		c0-1.196-0.067-2.394-0.199-3.59C330.962,248.602,330.697,247.771,330.364,246.807z"/>
</g>
<g>
</g>
<g>
</g>
<g>
</g>
<g>
</g>
<g>
</g>
<g>
</g>
<g>
</g>
<g>
</g>
<g>
</g>
<g>
</g>
<g>
</g>
<g>
</g>
<g>
</g>
<g>
</g>
<g>
</g>
</svg>
