<?xml version="1.0" encoding="utf-8"?>
<!-- Generator: Adobe Illustrator 18.0.0, SVG Export Plug-In . SVG Version: 6.00 Build 0)  -->
<!DOCTYPE svg PUBLIC "-//W3C//DTD SVG 1.1//EN" "http://www.w3.org/Graphics/SVG/1.1/DTD/svg11.dtd">
<svg version="1.1" id="Layer_1" xmlns="http://www.w3.org/2000/svg" xmlns:xlink="http://www.w3.org/1999/xlink" x="0px" y="0px"
	 viewBox="20.7 24.1 216 215.9" enable-background="new 20.7 24.1 216 215.9" xml:space="preserve">
<g>
	<rect x="20.7" y="24.1" width="13.5" height="13.5"/>
	<rect x="49.1" y="24.1" width="13.5" height="13.5"/>
	<rect x="77.7" y="24.1" width="13.5" height="13.5"/>
	<polygon points="119.7,37.5 119.7,24.1 106.2,24.1 106.2,24.2 104.7,24.2 104.7,24.1 106.2,24.1 106.2,37.5 	"/>
	<rect x="134.6" y="24.1" width="13.5" height="13.5"/>
	<rect x="163" y="24.1" width="13.5" height="13.5"/>
	<rect x="49.1" y="166.6" width="13.5" height="13.5"/>
	<rect x="20.7" y="52.7" width="13.5" height="13.5"/>
	<rect x="20.7" y="81.1" width="13.5" height="13.5"/>
	<rect x="20.7" y="138.1" width="13.5" height="13.5"/>
	<rect x="20.7" y="166.6" width="13.5" height="13.5"/>
	<rect x="163" y="52.7" width="13.5" height="13.5"/>
	<path d="M176.7,84.3v-2.8h-13.5v2.8H81v82.3h-2.8v13.5H81v59.9h155.7V84.3H176.7z M224.5,228.2H92.6V96.3h131.9V228.2z"/>
	<path display="none" d="M205.2,152.1L205.2,152.1v-0.4c-4.7,4.8-10.8,7.1-17,7.1c-6,0-11.8-2.3-16.5-6.7c0,0-12.3-11.9-20.6-19.9
		l17-17.7c2.4-2.4,1.6-4.5-1.7-4.5l0,0l-56.3,0.7c-3.5,0-6.2,2.8-6.2,6.4l1.6,56.3c0,2.3,1,3.4,2.1,3.4c0.7,0,1.6-0.4,2.6-1.6
		l14-14.5l20.6,19.9c7.5,7.2,17.4,10.8,27.1,10.8c10.4,0,20.4-4,28.1-11.9c8.7-9.2,12.2-21,10.5-32.3L205.2,152.1z"/>
</g>
<rect x="20.7" y="109.4" width="13.5" height="13.5"/>
</svg>
