<?xml version="1.0" encoding="utf-8"?>
<!-- Generator: Adobe Illustrator 19.0.0, SVG Export Plug-In . SVG Version: 6.00 Build 0)  -->
<svg version="1.1" id="Capa_1" xmlns="http://www.w3.org/2000/svg" xmlns:xlink="http://www.w3.org/1999/xlink" x="0px" y="0px"
	 viewBox="246 -246 512 512" style="enable-background:new 246 -246 512 512;" xml:space="preserve">
<style type="text/css">
	.st0{fill:#566E7F;}
	.st1{fill:#F5B445;}
	.st2{fill:#FFCF68;}
	.st3{fill:#35495C;}
	.st4{fill:#3F556B;}
	.st5{fill:#F09820;}
</style>
<g>
	<path class="st0" d="M330.4-151.7h-8c-6.6,0-12,5.4-12,12V16c0,6.6,5.4,12,12,12h8c2.6,0,5.1-0.8,7.2-2.4L382.3-8v-107.8
		l-44.7-33.5C335.5-150.8,333-151.7,330.4-151.7z"/>
	<path class="st0" d="M515.9,105l8.4-46.9c-4.8,0.7-8.7,4.2-9.9,8.9l-6,23.9c-0.9,3.6-0.1,7.4,2.2,10.3
		C511.9,103,513.8,104.2,515.9,105z"/>
	<path class="st0" d="M512.5,123.9c-4.8,0.6-8.9,4.1-10.1,8.9l-6,23.9c-0.9,3.6-0.1,7.4,2.2,10.3c1.4,1.8,3.4,3.1,5.5,3.9
		L512.5,123.9z"/>
	<path class="st1" d="M594.3-174.7c-30.5-3.8-59,4.6-81.4,20.8c-34.3,25-75.8,38.1-118.2,38.1h-12.5V-8h12.4
		C438-8,479.5,7,515.1,31.7c18.4,12.8,40.7,20.2,64.8,20.2c67.2,0,120.7-58.2,113-126.9C687.1-126.5,645.8-168.4,594.3-174.7z"/>
	<path class="st2" d="M579.8,63.9c-19.6,0-38.1-5-54.2-13.8l-23.5,131.4c-0.6,3.5,0.3,7.1,2.6,9.8c2.3,2.7,5.6,4.3,9.2,4.3h65.9
		c5.8,0,10.8-4.2,11.8-9.9l22.7-127.2C603.5,62,591.9,63.9,579.8,63.9z"/>
	<path class="st1" d="M616.6,45.8c-2.6,0.9-5.2,1.7-7.9,2.4c-1.3,0.3-2.6,0.6-3.9,0.9c-8,1.8-16.3,2.8-24.9,2.8
		c-18.8,0-36.6-4.6-52.2-12.7l-1.9,10.9c16.1,8.8,34.5,13.8,54.2,13.8c1.6,0,3.2,0,4.8-0.1c7.6-0.3,13.5,6.5,12.2,14l-17.1,96
		c-1,5.7-6,9.9-11.8,9.9H502c0,2.8,0.9,5.5,2.7,7.7c2.3,2.7,5.6,4.3,9.2,4.3h65.9c5.8,0,10.8-4.2,11.8-9.9l22.7-127.2l0,0
		L616.6,45.8z"/>
	<g>
		<path class="st3" d="M514.3-55.9c0.4,4.1,1.1,8.1,2.2,12h126.6c1.1-3.9,1.9-7.9,2.2-12H514.3z"/>
		<path class="st3" d="M516.5-79.8c-1.1,3.9-1.9,7.9-2.2,12h131.1c-0.4-4.1-1.1-8.1-2.2-12H516.5z"/>
		<path class="st3" d="M521.2-31.9c2.2,4.3,4.8,8.3,7.8,12h101.6c3-3.7,5.6-7.7,7.8-12H521.2z"/>
		<path class="st3" d="M542-8c10.7,7.5,23.7,12,37.8,12s27.1-4.5,37.8-12H542z"/>
		<path class="st3" d="M617.6-115.7c-10.7-7.5-23.7-12-37.8-12s-27.1,4.5-37.8,12H617.6z"/>
		<path class="st3" d="M529-103.8c-3,3.7-5.6,7.7-7.8,12h117.2c-2.2-4.3-4.8-8.3-7.8-12H529z"/>
	</g>
	<path class="st4" d="M370.3-109.7v59.9c0,9.5-4.5,18.4-12,24.1l-20.7,15.5c-2.1,1.6-4.6,2.4-7.2,2.4l0,0c-11,0-20,8.9-20,20V16
		c0,6.6,5.4,12,12,12h8c2.6,0,5.1-0.8,7.2-2.4L382.3-8v-18v-89.8l0,0C377.3-119.4,370.3-115.9,370.3-109.7z"/>
	<path class="st5" d="M663.1-139.2c-6.9-7.4-18.8,1.3-13.8,10.1c9.1,16.4,14.4,35.2,14.4,55.3c0,6.3-0.5,12.5-1.5,18.6
		C651.5,9.7,579,46.5,520.3,16.8c-2-1-3.7-2-5.3-3.1C479.5-11,438-25.9,394.7-25.9h-12.5v18h12.4C438-8,479.5,7,515.1,31.7
		c4.4,3.1,14.1,8.3,14.2,8.3c16.9,8.5,36.2,12.9,56.7,11.8C646,48.6,694.1-2.7,693.6-62.9C693.3-92.4,681.8-119.2,663.1-139.2z"/>
</g>
</svg>
