<?xml version="1.0" encoding="utf-8"?>
<!-- Generator: Adobe Illustrator 19.0.0, SVG Export Plug-In . SVG Version: 6.00 Build 0)  -->
<svg version="1.1" id="Layer_1" xmlns="http://www.w3.org/2000/svg" xmlns:xlink="http://www.w3.org/1999/xlink" x="0px" y="0px"
	 viewBox="-234 326.3 141.7 141.7" style="enable-background:new -234 326.3 141.7 141.7;" xml:space="preserve">
<style type="text/css">
	.st0{fill:#2AACE3;}
	.st1{fill:#FFFFFF;}
</style>
<g>
	<path class="st0" d="M-107.9,382c-1.1-1.7-2.3-5.9-3.5-6.5c-6.7-14.1-19-25.9-34.1-31c6.5,0.4,9.3,4.2,13,6.3
		c10.6,5.7,18.6,15.6,23.2,25.6c-1.9-4-4.1-7.8-6.8-11.3C-112.2,370.5-109.6,375.5-107.9,382L-107.9,382z M-106.2,394.8
		c0.2,1.6,0.3,3.2,0.3,4.6C-106.1,397.8-106.2,396.3-106.2,394.8L-106.2,394.8z M-155.4,347.3c-6.7-0.9-13.8-0.7-20.7,1
		c7.4-2,15.9-3.1,23.4-0.9L-155.4,347.3L-155.4,347.3z M-145.9,350.5c6.5,2,12.5,5.8,16.9,10.4
		C-133.5,356.4-139.4,352.8-145.9,350.5L-145.9,350.5z M-199.1,354c0.8-0.7,1.6-1.3,2.4-1.9C-197.5,352.7-198.3,353.4-199.1,354
		L-199.1,354z M-115.1,421.9c-0.7,0.8-1.3,1.7-1.6,2.6c1.4-1.6,3.6-5.1,4.7-6l-0.2,2c4.1-4.4,6.6-15.1,8.1-21.1
		c-2.5,14.5-9.7,30.3-22.9,41.3c-13,11.1-32.2,15.9-48.6,11.5c-18.5-4.1-34-16.5-42.1-32.7c-1.6-3-3.4-11.1-3.3-17
		c-1-10.3,0.8-20.8,4.7-30.5c9.2-20.6,30.9-33.7,54.6-34c4.9,0.1,10.8,2.6-0.4,2.8c-7.3,0.7-14.5,2.5-21.3,5.4
		c4.7-2,9.5-3.2,14.6-3.8c-2.1,0.4-4.3,0.8-6.2,1.3c10-1.9,20.1-1.2,29.6,1.6c-13.7-2.9-28.7-1.4-41.6,5.3
		c-12.8,6.6-22.9,18.5-26.7,31.8c3.3-6.9,7.4-16.5,13.3-20.3c-8.7,8.8-14.1,20.8-15.4,33.5c0-1-0.1-1.9,0-2.8
		c-1.9,7.9-0.4,16.6,2.1,24.2c-2.1-7.1-2.7-14.4-2-21.4c0,3.2,0.1,6.7,0.4,10.8c0.2-2.2,0.2-5.4,0.5-8.6c0.2-4.1,0.8-8.3,2-12.2
		c-1.6,6.1-1.8,12.5-0.7,18c-0.1-8.4,1.2-17.1,4.8-24.6c-1.6,4.3-3,8.7-3.4,13.2c-1.3,7.5-1,15.5,1.3,23l-0.3-0.9
		c0.1,0.6,0.4,1.1,0.6,1.7c0.9,2.9,2.2,5.8,3.6,8.6c1.4,2.4,3.1,4.6,5.1,6.4l0.8,1.1c-0.7-0.6-1.1-0.7-0.2,0.6
		c4.2,6,11.1,10.1,18.1,14.3c1.9,1.1,4.7,2.1,7.8,2.7c0.8,0.4,1.3,0.4,1.7,0.3c0.7,0.1,1.3,0.3,2,0.4c1.7,0.2,3.3,0.5,5,0.5
		c-1.6-0.2-3.3-0.4-5-0.5c-0.6-0.1-1.2-0.3-1.8-0.4c0.5-0.1,0.9-0.2,1.8,0c-11.2-2.4-21.8-8.9-29.5-18c0.6,0.4,1.4,1,1.8,1.3
		c-0.9-0.7-1.8-1.5-2.6-2.3c-2.4-3-4.5-6.2-6.2-9.7c0.6,1,1.2,1.9,1.9,2.6c-5-9.6-7.4-20.8-5.9-31.7c1.7-10.2,6.6-19.6,13.6-26.7
		c-4.1,3.5-7.7,8.2-10.2,13.5c5.9-14.5,19.2-26.1,34.6-29.1c-1.9,1-4.1,2.3-5.7,3.6c1.4-0.7,2.9-1.4,4.6-1.8l0.8-0.2
		c-1.9,0.5-3.7,1.4-5.6,2.1c-0.5,0.4-0.9,0.9-1.2,1.3c0.3,0.3,4.8-1.1,2.3,0.1c-8.6,4.9-14.5,9-15.2,13.7c0,0.1,0.1,0.1,0.3,0
		c8.2-9.8,20.5-16.1,34.2-16.1c24.6,0,44.5,19.9,44.5,44.5c0,2-0.1,3.9-0.4,5.8c0.3-0.7,0.5-1.4,0.8-2.2c0.3,8.3-3.8,16.9-7,24.2
		c6.4-7.3,8.7-20.7,10.7-22c2.9-1.3-1.3,14.1-5.6,20.8C-115.8,422.7-115.8,422.7-115.1,421.9L-115.1,421.9z M-188.6,348.6
		L-188.6,348.6c0.7-0.3,1.5-0.7,2.2-1.1C-187.2,347.9-187.9,348.2-188.6,348.6c0.7-1.1,4.8-2.7,6.6-3.8c-5.6,1.8-10.1,4-14.6,7.3
		c2.4-1.8,4.8-3.4,7.4-4.9c-9.6,5.1-18.6,13.8-23.9,24.3c-1.9,4-5.9,6.9-5.8,13.8C-214.4,369.6-203,356.2-188.6,348.6L-188.6,348.6z
		 M-194,425.7c0.1-0.1,0.1-0.1,0.2-0.2c-0.5-0.6-1-1.3-1.5-1.9c0.2,0.6,0.5,1.2,0.6,1.8c0.6,0.3,1.2,0.8,1.9,1.4
		C-193.2,426.3-193.6,425.9-194,425.7L-194,425.7z M-170.6,440.1l0.3,0.2c0.1,0,0.3,0,0.4,0C-170.1,440.2-170.4,440.2-170.6,440.1
		L-170.6,440.1z M-163.8,441.3c0.7,0.1,1.3,0.3,2,0.4c0.1,0,0.3-0.1,0.5-0.3C-162.1,441.4-162.9,441.4-163.8,441.3L-163.8,441.3z
		 M-152.3,351c4.3,0.8,8.6,2,12.5,3.9c5,2.7,9.4,6.2,12.6,10.4C-133.9,358.3-142.6,353.1-152.3,351L-152.3,351z"/>
	<path class="st1" d="M-151.7,399.5h-8v28.8h-11.9v-28.8h-6v-9.9h6v-6c0-8.1,3.4-12.9,12.9-12.9h8v9.9h-5c-3.7,0-4,1.4-4,4l0,5h9
		L-151.7,399.5L-151.7,399.5z"/>
</g>
</svg>
