<?xml version="1.0" encoding="utf-8"?>
<!-- Generator: Adobe Illustrator 19.0.0, SVG Export Plug-In . SVG Version: 6.00 Build 0)  -->
<svg version="1.1" id="Capa_1" xmlns="http://www.w3.org/2000/svg" xmlns:xlink="http://www.w3.org/1999/xlink" x="0px" y="0px"
	 viewBox="246 -246 512 512" style="enable-background:new 246 -246 512 512;" xml:space="preserve">
<style type="text/css">
	.st0{fill:#ED2C39;}
	.st1{fill:#483640;}
	.st2{fill:#CB202C;}
	.st3{fill:#F6B74E;}
	.st4{fill:#F6934C;}
	.st5{fill:#F27046;}
</style>
<g>
	<path class="st0" d="M704.5-98h-405c-7.5,0-13.5-6-13.5-13.5V-125c0-7.5,6-13.5,13.5-13.5h405c7.5,0,13.5,6,13.5,13.5v13.5
		C718-104,712-98,704.5-98z"/>
	<rect x="367" y="-44" class="st1" width="270" height="216"/>
	<rect x="319.8" y="-98" class="st2" width="364.5" height="13.5"/>
	<rect x="637" y="111.3" class="st2" width="27" height="27"/>
	<rect x="664" y="3.3" class="st2" width="20.3" height="27"/>
	<rect x="650.5" y="-37.3" class="st2" width="20.3" height="27"/>
	<rect x="643.8" y="57.3" class="st2" width="40.5" height="27"/>
	<path class="st0" d="M704.5,172h-20.3V84.3h-40.5v-27h40.5v-27H664v-27h20.3v-87.8H319.8V16.8H340v27h-20.3v81h27v27h-27V172h-20.3
		c-7.5,0-13.5,6-13.5,13.5V199c0,7.5,6,13.5,13.5,13.5h405c7.5,0,13.5-6,13.5-13.5v-13.5C718,178,712,172,704.5,172z M650.5-37.3
		h20.3v27h-20.3V-37.3z M340-23.8h20.3v27H340V-23.8z M664,138.3h-27V172H367V97.8h-33.8v-27H367V-44h270v155.3h27V138.3z"/>
	<rect x="319.8" y="124.8" class="st2" width="27" height="27"/>
	<rect x="319.8" y="16.8" class="st2" width="20.3" height="27"/>
	<rect x="340" y="-23.8" class="st2" width="20.3" height="27"/>
	<rect x="333.3" y="70.8" class="st2" width="33.8" height="27"/>
	<polygon class="st2" points="596.5,-192.5 407.5,-192.5 380.5,-138.5 623.5,-138.5 	"/>
	<path class="st3" d="M502,10v40.5c-33.5,0-60.8,27.2-60.8,60.8c0,33.5,27.2,60.8,60.8,60.8c44.7,0,81-36.3,81-81
		C583,46.3,546.7,10,502,10z"/>
	<path class="st4" d="M502,43.8v33.8c-18.6,0-33.8,15.1-33.8,33.8c0,18.6,15.1,33.8,33.8,33.8c28,0,50.6-22.7,50.6-50.6
		C552.6,66.4,530,43.8,502,43.8z"/>
	<path class="st5" d="M502,77.5c18.6,0,33.8,15.1,33.8,33.8c0,18.6-15.1,33.8-33.8,33.8V77.5z"/>
</g>
</svg>
