<?xml version="1.0" encoding="iso-8859-1"?>
<!-- Generator: Adobe Illustrator 19.0.0, SVG Export Plug-In . SVG Version: 6.00 Build 0)  -->
<svg version="1.1" id="Layer_1" xmlns="http://www.w3.org/2000/svg" xmlns:xlink="http://www.w3.org/1999/xlink" x="0px" y="0px"
	 viewBox="0 0 497.6 497.6" style="enable-background:new 0 0 497.6 497.6;" xml:space="preserve">
<circle style="fill:#F9DC9B;" cx="408" cy="81.6" r="65.6"/>
<path style="fill:#F7CE6B;" d="M360.8,35.2c25.6-25.6,67.2-25.6,93.6,0c25.6,25.6,25.6,67.2,0,93.6"/>
<path style="fill:#F4B840;" d="M454.4,35.2c25.6,25.6,25.6,67.2,0,93.6"/>
<path style="fill:#DD3636;" d="M61.6,376.8c0,0-27.2-192,149.6-209.6c177.6-18.4,198.4-21.6,211.2-61.6c0,0,34.4-8,39.2,15.2
	c4.8,23.2,21.6,66.4-12.8,96.8c-34.4,30.4-27.2,156.8-27.2,156.8L61.6,376.8z"/>
<path style="fill:#C92D2D;" d="M211.2,166.4c177.6-17.6,198.4-20.8,211.2-60.8c0,0,34.4-8,39.2,15.2c4.8,23.2,21.6,66.4-12.8,96.8
	c-34.4,30.4-27.2,156.8-27.2,156.8l-360,2.4"/>
<path style="fill:#AF1E1E;" d="M461.6,120.8c4.8,23.2,21.6,66.4-12.8,96.8c-34.4,30.4-27.2,156.8-27.2,156.8l-360,2.4"/>
<path style="fill:#9E0A0A;" d="M448.8,217.6c-34.4,30.4-27.2,156.8-27.2,156.8l-360,2.4"/>
<path style="fill:#F9DC9B;" d="M497.6,417.6c0,35.2-3.2,64-38.4,64H38.4c-35.2,0-38.4-28.8-38.4-64l0,0c0-35.2,28.8-64,63.2-64
	h370.4C468.8,353.6,497.6,382.4,497.6,417.6L497.6,417.6z"/>
<path style="fill:#F7CE6B;" d="M64.8,353.6h368.8c35.2,0,63.2,28.8,63.2,64l0,0c0,35.2-3.2,64-38.4,64H224.8"/>
<path style="fill:#F4B840;" d="M64.8,353.6h368.8c35.2,0,63.2,29.6,63.2,64.8l0,0c0,35.2-2.4,63.2-37.6,63.2"/>
<g>
	<ellipse style="fill:#F7F5E4;" cx="49.6" cy="420.8" rx="30.4" ry="31.2"/>
	<circle style="fill:#F7F5E4;" cx="60" cy="377.6" r="4.8"/>
	<circle style="fill:#F7F5E4;" cx="88" cy="391.2" r="8.8"/>
</g>
<g>
	<circle style="fill:#DD3636;" cx="76.8" cy="108.8" r="18.4"/>
	<circle style="fill:#DD3636;" cx="150.4" cy="114.4" r="8.8"/>
	<circle style="fill:#DD3636;" cx="116.8" cy="159.2" r="6.4"/>
	<circle style="fill:#DD3636;" cx="114.4" cy="130.4" r="1.6"/>
</g>
<g>
	<circle style="fill:#2CBF7F;" cx="47.2" cy="232.8" r="13.6"/>
	<circle style="fill:#2CBF7F;" cx="252.8" cy="60.8" r="22.4"/>
	<circle style="fill:#2CBF7F;" cx="215.2" cy="113.6" r="9.6"/>
</g>
<ellipse transform="matrix(-0.2631 -0.9648 0.9648 -0.2631 369.544 477.485)" style="fill:#F7F5E4;" cx="367.128" cy="97.611" rx="25.601" ry="14.4"/>
<g>
</g>
<g>
</g>
<g>
</g>
<g>
</g>
<g>
</g>
<g>
</g>
<g>
</g>
<g>
</g>
<g>
</g>
<g>
</g>
<g>
</g>
<g>
</g>
<g>
</g>
<g>
</g>
<g>
</g>
</svg>
