<svg height="25" viewBox="0 0 250 25" width="250" xmlns="http://www.w3.org/2000/svg"><g fill="none" fill-rule="evenodd"><g transform="translate(48.22928 3.83224)"><g fill="#4cb748" fill-rule="nonzero"><path d="m12.8456 7.976c0-2.644-1.9388-4.8476-4.6712-4.8476-2.732 0-4.6268 2.1592-4.6268 4.8036v.044c0 2.6436 1.9392 4.8472 4.6712 4.8472s4.6268-2.1592 4.6268-4.8036zm-4.6712 7.976c-4.7592 0-8.1744-3.5476-8.1744-7.9324v-.0436c0-4.3848 3.4596-7.976 8.2188-7.976s8.1744 3.5472 8.1744 7.932v.044c0 4.3844-3.4592 7.976-8.2188 7.976z"/><path d="m25.737 3.3928v12.2948h-3.3932v-12.2948h-4.6932v-3.1288h12.7792v3.1288z"/><path d="m40.01592 3.3928v12.2948h-3.3932v-12.2948h-4.6932v-3.1288h12.7792v3.1288z"/></g><path d="m47.31044 15.68772v-15.424h11.634v3.0188h-8.2628v3.1292h7.2708v3.018h-7.2708v3.2392h8.3728v3.0188z" fill="#476bb3"/><path d="m71.50496 5.52992c0-1.454-1.0136-2.2032-2.666-2.2032h-3.3712v4.4288h3.4372c1.6528 0 2.6-.8816 2.6-2.1816zm-.066 10.158-3.3052-4.9356h-2.666v4.9356h-3.3932v-15.424h7.0508c3.6356 0 5.8168 1.9172 5.8168 5.09v.044c0 2.49-1.344 4.0544-3.3052 4.7812l3.768 5.5088z" fill="#476bb3"/></g><g fill="#000" transform="translate(133.17596 3.83188)"><path d="m5.3544 1.87284h-3.6136v12.2068h3.6136c3.9 0 6.39-2.6444 6.39-6.0816 0-3.4368-2.49-6.1252-6.39-6.1252m0 13.8152h-5.3544v-15.4236h5.3544c4.8472 0 8.1964 3.3272 8.1964 7.6896 0 4.3628-3.3492 7.734-8.1964 7.734"/><path d="m17.38644 15.68824h1.7408v-15.424h-1.7408z"/><path d="m30.14424 1.87284h-4.7592v6.2576h4.7372c2.3136 0 3.966-1.19 3.966-3.1948 0-1.9172-1.454-3.0628-3.944-3.0628zm4.1204 13.8152-4.4728-5.9932h-4.4068v5.9932h-1.7408v-15.4236h6.632c3.3932 0 5.5748 1.8288 5.5748 4.6048 0 2.5784-1.7628 4.0764-4.1864 4.5172l4.7372 6.3016z"/><path d="m50.72508 1.851h-9.4084v5.266h8.4168v1.5864h-8.4168v5.3984h9.5184v1.5864h-11.2592v-15.424h11.1492z"/><path d="m61.39072 15.95256c-4.4508 0-7.7336-3.5036-7.7336-7.9544 0-4.4064 3.2608-7.998 7.7996-7.998 2.7984 0 4.4732.9916 6.0152 2.4456l-1.1896 1.278c-1.3-1.234-2.754-2.1152-4.8476-2.1152-3.4152 0-5.9708 2.754-5.9708 6.3456 0 3.5912 2.5776 6.39 5.9708 6.39 2.1152 0 3.5036-.8156 4.98-2.2256l1.1456 1.124c-1.6088 1.6304-3.3712 2.71-6.1696 2.71"/><path d="m76.44112 15.68808h-1.7628v-13.8152h-5.178v-1.6088h12.1184v1.6088h-5.1776z"/><path d="m90.98448 1.6084c-3.5252 0-6.0372 2.8204-6.0372 6.3456 0 3.5256 2.556 6.39 6.0812 6.39 3.5256 0 6.0372-2.8204 6.0372-6.3456 0-3.5256-2.556-6.39-6.0812-6.39m0 14.344c-4.6928 0-7.8436-3.6796-7.8436-7.954 0-4.2748 3.1948-7.9984 7.8876-7.9984 4.6936 0 7.8444 3.6796 7.8444 7.954 0 4.2748-3.1952 7.9984-7.8884 7.9984"/><path d="m109.054 1.87284h-4.7592v6.2576h4.7372c2.3136 0 3.966-1.19 3.966-3.1948 0-1.9172-1.454-3.0628-3.944-3.0628zm4.1204 13.8152-4.4728-5.9932h-4.4068v5.9932h-1.7408v-15.4236h6.6324c3.3928 0 5.5744 1.8288 5.5744 4.6048 0 2.5784-1.7628 4.0764-4.1864 4.5172l4.7372 6.3016z"/></g><path d="m43.0824007 18.5229115s-1.4166709-.5229413-1.5527996-.7584959c-.2101456-.3643654-.5724655-.4967686-.855075-.6543181-.3524855-.1970653-.5812647-.1996312-.9565246-.3505093-2.3452449-.9458105-2.936344-.5932485-3.9306533-.4649508-.3250527.0415685-1.1402725.5521932-1.4585965.7441266-.6278486.3787347-1.0631501.231449-2.5885169-.9273357-3.1206096-2.3719674-1.3390308-4.1989264-4.0424549-9.2543681-.4394423-.82264471-3.08386-9.80040305-13.363911-5.52809036 0 0-.8814725-2.26009191-4.35301483-.51319072-1.18271569.59581442-3.52433748 2.70092273-4.9663707 1.85313167-2.7163641-1.59550993-4.48603804-.15806274-4.48603804-.15806274-.24430713.46238483-.18323035 2.29447568.56314866 2.01222078 1.67961156-.63635648 4.24328369-.47675417 4.49742523.39669643.03002079.10263814.05331278.20681585.07194638.31253314-1.9296123.14625935-4.28158609.7348891-4.51450603 1.36611368-.24171914.65329178.32971112 1.8069445 1.42909323 1.84851295.67236222.02565953 1.39337884-.92990157 2.99793842-1.45079015-.60352144 2.76763752-2.91149924 6.23526712-1.5377892 10.48448632 2.03106187 6.2824807 12.11856568 7.515678 15.73296548 6.1993438 0 0-19.3686675-2.7327406-8.4901906-14.15482628 5.9611977-3.93565958 7.0698966-1.68891064 6.2438072.78620818-1.3721572 4.1111708 3.7779614 6.9270482 3.7779614 6.9270482s-.1304351 1.2845164-2.4979369-.8108413c-.3069367-.2714779-2.0005235.8524098-1.0766077 2.0553288.4787798.6240399.7225694.7046109.9171869.8667791 0 0 2.7748529 1.7961675 5.8664769 1.4328285 2.8172961-.3299816 4.5269284 2.9657291 9.1806688 2.4171283 3.5331367-.4161977 3.7365534-1.3168474 4.9606771-1.724834.9782638-.3263893 1.6697772-.1519045 1.6697772-.1519045.4906847.0102638.666151.0975063 1.345242-.0076978.7375798-.112902.6713271-.1898806.8669798-.3700105.2572471-.236581.5367511-.6112102.6630454-.785695.971535-1.3414805-.1133543-1.6365652-.1133543-1.6365652" fill="#221d20"/></g></svg>