<?xml version="1.0" encoding="utf-8"?>
<!-- Generator: Adobe Illustrator 18.0.0, SVG Export Plug-In . SVG Version: 6.00 Build 0)  -->
<!DOCTYPE svg PUBLIC "-//W3C//DTD SVG 1.1//EN" "http://www.w3.org/Graphics/SVG/1.1/DTD/svg11.dtd">
<svg version="1.1" id="Layer_1" xmlns="http://www.w3.org/2000/svg" xmlns:xlink="http://www.w3.org/1999/xlink" x="0px" y="0px"
	 viewBox="20.7 24.1 216 215.9" enable-background="new 20.7 24.1 216 215.9" xml:space="preserve">
<g>
	<rect x="20.8" y="226.5" width="13.5" height="13.5"/>
	<rect x="20.8" y="198.2" width="13.5" height="13.5"/>
	<rect x="20.8" y="169.5" width="13.5" height="13.5"/>
	<polygon points="34.2,141 20.8,141 20.8,154.5 20.9,154.5 20.9,156 20.8,156 20.8,154.5 34.2,154.5 	"/>
	<rect x="20.8" y="112.6" width="13.5" height="13.5"/>
	<rect x="20.8" y="84.3" width="13.5" height="13.5"/>
	<rect x="163.3" y="198.2" width="13.5" height="13.5"/>
	<rect x="49.4" y="226.5" width="13.5" height="13.5"/>
	<rect x="77.8" y="226.5" width="13.5" height="13.5"/>
	<rect x="134.8" y="226.5" width="13.5" height="13.5"/>
	<rect x="163.3" y="226.5" width="13.5" height="13.5"/>
	<rect x="49.4" y="84.3" width="13.5" height="13.5"/>
	<path d="M79.2,84h-1v13.5H81c0.7-2.4,1.4-4.7,2.1-7.1c0-1.6,0-3.1-0.2-4.6C81.5,85.7,80.1,85.1,79.2,84z"/>
	<path d="M81,24v45.2c1.1-0.2,2.2-0.1,3.2,0.4c2.8-0.7,5.7-0.8,8.7-0.5V36.2h131.9v131.9H190c0,3.9,0.2,7.8,0.4,11.6h46.2V24H81z"/>
	<path d="M163.3,182.4v0.2h13.5v-1.3C172.3,181.7,167.8,182,163.3,182.4z"/>
	<path display="none" d="M148.8,55.5L148.8,55.5h-0.4c4.8,4.7,7.1,10.8,7.1,17c0,6-2.3,11.8-6.7,16.5c0,0-11.9,12.3-19.9,20.6
		l-17.7-17c-2.4-2.4-4.5-1.6-4.5,1.7l0,0l0.7,56.3c0,3.5,2.8,6.2,6.4,6.2l56.3-1.6c2.3,0,3.4-1,3.4-2.1c0-0.7-0.4-1.6-1.6-2.6
		l-14.5-14l19.9-20.6c7.2-7.5,10.8-17.4,10.8-27.1c0-10.4-4-20.4-11.9-28.1c-9.2-8.7-21-12.2-32.3-10.5L148.8,55.5z"/>
</g>
<rect x="106.1" y="226.5" width="13.5" height="13.5"/>
<rect x="163.3" y="169.5" width="13.5" height="13.5"/>
<rect x="163.3" y="141.8" width="13.5" height="13.5"/>
<rect x="163.3" y="112.6" width="13.5" height="13.5"/>
<rect x="163.3" y="84.3" width="13.5" height="13.5"/>
<rect x="134.8" y="84" width="13.5" height="13.5"/>
<rect x="106.1" y="84" width="13.5" height="13.5"/>
<rect x="77.5" y="83.7" width="13.5" height="13.5"/>
</svg>
